<svg id="svg" xmlns="http://www.w3.org/2000/svg" viewBox="48.290000915527344 154.91000366210938 583.280029296875 434.8099670410156" height="434.8099670410156"><path d="M 212.09,216.9 L 213.2,215.35 L 213.71,214.84 L 213.71,214.84 L 213.71,215.86 L 213.71,218.42 L 213.71,222 L 213.71,227.08 L 213.2,237.78 L 212.17,248.52 L 212.17,258.18 L 212.17,265.79 L 212.17,272.44 L 212.17,276.03 L 212.17,286.2 L 212.17,292.31 L 211.66,297.41 L 211.66,302.01 L 211.66,306.57 L 211.66,312.69 L 211.66,317.79 L 211.66,319.34 L 211.66,322.89 L 211.66,327.48 L 211.66,330.02 L 211.66,331.57 L 211.66,331.57 L 211.66,331.57 L 211.15,330.52" fill="none" stroke="#3794ff" stroke-width="2"></path><path d="M 216.15,214.84 L 216.74,215.86 L 216.74,215.86 L 216.74,215.86 L 216.74,215.86 L 217.26,215.86 L 217.77,215.86 L 220.33,215.86 L 221.36,215.86 L 224.39,215.35 L 228.49,214.84 L 233.07,214.84 L 235.63,214.84 L 242.25,214.84 L 245.33,214.84 L 250.92,215.86 L 257.03,216.9 L 261.13,216.9 L 266.22,217.92 L 271.31,217.92 L 275.4,217.92 L 282.54,216.39 L 289.68,215.86 L 291.21,215.86 L 294.76,215.86 L 297.84,215.86 L 302.41,215.86 L 306,215.86 L 310.57,214.84 L 313.13,214.37 L 314.63,214.37 L 319.76,213.86 L 321.3,213.86 L 326.38,213.86 L 329.93,213.86 L 331.97,213.35 L 335.05,213.35 L 337.57,213.35 L 339.62,213.35 L 342.19,213.35 L 344.24,213.35 L 346.24,213.86 L 348.29,213.86 L 351.37,213.86 L 353.89,213.86 L 356.97,213.86 L 359.02,213.86 L 361.03,214.37 L 363.08,214.37 L 365.64,214.84 L 367.65,214.84 L 369.19,214.84 L 371.24,214.84 L 373.29,214.84 L 375.3,214.84 L 376.84,214.84 L 379.91,214.84 L 381.96,214.84 L 385.51,214.84 L 388.07,214.84 L 390.08,214.37 L 392.64,214.37 L 395.21,214.37 L 396.23,214.37 L 399.78,214.37 L 402.85,214.37 L 405.89,214.84 L 408.97,215.35 L 412.04,215.86 L 415.07,216.39 L 419.18,216.39 L 421.7,215.86 L 424.26,215.86 L 425.8,215.86 L 425.8,216.39" fill="none" stroke="#3794ff" stroke-width="2"></path><path d="M 213.12,334.1 L 213.71,333.09 L 213.2,333.09 L 213.2,333.62 L 213.2,333.62 L 213.2,333.62 L 214.74,333.62 L 217.26,333.62 L 220.84,333.62 L 223.41,333.62 L 232.04,333.62 L 246.82,334.1 L 251.95,334.1 L 258.57,333.09 L 262.63,332.58 L 269.77,331.57 L 280.49,329 L 282.02,329 L 289.68,328.01 L 294.76,327.48 L 300.35,328.01 L 303.43,328.01 L 311.6,328.01 L 316.68,328.01 L 317.7,328.01 L 324.33,329 L 327.92,329.51 L 330.95,329.51 L 335.56,329.51 L 338.6,330.02 L 343.72,330.52 L 347.27,331.06 L 350.86,331.06 L 355.43,331.06 L 359.02,331.06 L 365.13,331.57 L 368.16,331.57 L 370.73,331.57 L 374.32,331.57 L 377.86,331.57 L 381.45,331.57 L 385,331.57 L 386.54,331.06 L 391.11,331.06 L 394.7,331.06 L 399.27,331.06 L 404.39,331.06 L 405.89,331.06 L 410.5,331.57 L 412.56,332.07 L 415.59,332.58 L 416.61,332.58 L 419.18,332.58 L 422.21,332.07 L 424.78,331.57 L 426.32,331.06 L 429.86,329.51 L 431.91,329 L 432.94,329 L 433.96,329" fill="none" stroke="#3794ff" stroke-width="2"></path><path d="M 427.26,215.86 L 428.32,216.39 L 428.32,216.39 L 428.32,216.39 L 428.83,216.9 L 428.83,217.41 L 429.35,219.97 L 429.35,222 L 429.86,226.06 L 430.37,232.69 L 430.89,237.3 L 430.89,242.91 L 430.89,246.97 L 430.89,252.07 L 430.89,257.15 L 430.37,262.75 L 430.37,267.34 L 430.37,267.85 L 430.37,271.94 L 429.86,276.53 L 429.86,279.58 L 429.35,281.63 L 429.35,287.24 L 429.35,289.78 L 429.35,293.36 L 429.35,294.85 L 429.35,296.91 L 429.35,297.41 L 429.86,302.01 L 429.86,304.03 L 429.86,307.61 L 429.86,308.12 L 429.86,311.67 L 429.86,313.73 L 429.86,315.25 L 429.86,320.86 L 429.86,322.41 L 430.37,324.94 L 430.37,326.46 L 430.37,326.98 L 430.37,326.98 L 430.29,326.46" fill="none" stroke="#3794ff" stroke-width="2"></path><path d="M 212.09,213.35 L 212.17,214.84 L 212.17,214.84 L 212.17,214.84 L 211.66,214.84 L 211.15,214.84 L 211.15,214.84 L 212.17,214.37 L 216.74,212.31 L 219.82,211.29 L 227.98,207.74 L 234.09,205.68 L 235.63,205.18 L 244.81,201.09 L 251.44,197.03 L 258.06,193.96 L 264.17,191.43 L 270.28,189.37 L 275.92,187.34 L 283.56,183.76 L 289.68,181.23 L 295.78,178.69 L 303.95,175.11 L 306.51,174.1 L 311.6,171.53 L 316.17,169.5 L 320.27,167.47 L 325.35,165.42 L 327.4,164.91 L 328.43,164.91 L 328.43,164.91 L 328.43,164.91 L 328.35,164.91" fill="none" stroke="#3794ff" stroke-width="2"></path><path d="M 433.88,213.85 L 432.42,214.84 L 431.4,215.35 L 430.37,215.86 L 429.86,215.86 L 429.86,215.86 L 429.86,215.86 L 429.86,215.86 L 431.91,214.84 L 436.48,212.31 L 440.07,210.78 L 441.61,209.74 L 444.65,208.25 L 448.23,206.19 L 451.78,203.63 L 455.36,201.62 L 458.91,200.08 L 460.45,199.06 L 463.01,198.02 L 465.58,196.53 L 468.1,194.47 L 471.69,192.41 L 475.75,189.37 L 479.85,186.83 L 482.88,184.8 L 486.98,182.24 L 488.48,180.69 L 490.53,179.7 L 491.04,179.7 L 492.07,178.69 L 494.63,177.65 L 497.15,176.13 L 499.2,175.11 L 502.28,173.59 L 502.79,173.08 L 503.78,173.08 L 504.29,172.57 L 506.34,172.07 L 507.36,171.53 L 507.79,171.53" fill="none" stroke="#3794ff" stroke-width="2"></path><path d="M 330.36,170.01 L 328.94,170.01 L 328.43,170.01 L 328.43,170.01 L 328.94,170.01 L 329.93,170.01 L 334.03,170.01 L 336.07,170.01 L 340.65,170.01 L 343.72,170.52 L 345.22,170.52 L 355.94,170.52 L 363.59,171.53 L 368.16,171.53 L 375.81,171.03 L 378.89,171.03 L 382.95,170.52 L 388.58,170.01 L 393.16,170.52 L 396.75,171.03 L 397.73,171.03 L 405.89,171.03 L 411.53,171.53 L 417.64,171.53 L 421.7,171.53 L 427.34,171.03 L 428.32,171.03 L 436.48,170.52 L 443.11,169.5 L 445.16,168.97 L 449.26,168.49 L 454.85,167.98 L 457.93,167.47 L 463.53,166.46 L 465.07,166.46 L 469.12,165.92 L 469.64,165.92 L 472.71,165.92 L 475.23,165.92 L 477.8,165.92 L 479.34,165.92 L 482.88,166.97 L 484.42,166.97 L 486.47,166.97 L 489.5,166.97 L 491.56,166.97 L 493.1,166.46 L 493.61,166.46 L 494.12,166.46 L 495.66,166.46 L 496.64,165.92 L 497.67,165.92 L 498.69,165.92 L 499.72,165.92 L 500.23,165.92 L 500.74,165.92 L 503.3,165.92 L 503.78,165.92 L 503.78,165.92 L 505.31,166.46 L 505.83,166.46 L 506.85,166.46 L 507.36,166.46 L 507.87,166.46 L 507.87,166.46 L 508.39,166.46" fill="none" stroke="#3794ff" stroke-width="2"></path><path d="M 509.85,170.01 L 509.85,168.96 L 510.44,167.98 L 510.44,167.98 L 510.44,168.49 L 510.44,169.5 L 510.44,170.52 L 510.44,171.03 L 510.95,174.58 L 510.95,179.2 L 510.95,181.74 L 510.95,185.82 L 510.44,191.43 L 509.93,197.03 L 509.93,200.59 L 509.93,202.64 L 509.41,208.25 L 509.41,210.78 L 509.41,212.82 L 509.41,217.92 L 509.41,222 L 509.41,225.07 L 509.93,226.57 L 509.93,230.65 L 509.93,232.69 L 509.93,235.25 L 509.93,239.31 L 509.93,241.87 L 509.93,244.41 L 509.93,247.48 L 509.41,251.03 L 508.9,252.58 L 508.39,253.09 L 508.39,254.61 L 508.39,256.13 L 508.39,258.69 L 508.39,259.68 L 508.39,260.21 L 508.39,260.21 L 508.39,259.68 L 508.39,259.2 L 508.31,258.69" fill="none" stroke="#3794ff" stroke-width="2"></path><path d="M 439.99,328.5 L 439.05,328.5 L 439.05,328.5 L 438.02,328.01 L 436.99,327.48 L 436.48,327.48 L 435.97,327.48 L 435.46,327.48 L 435.46,327.48 L 435.97,327.48 L 437.51,326.98 L 442.12,325.45 L 444.13,324.94 L 448.74,322.41 L 454.34,319.34 L 456.39,317.79 L 469.12,311.17 L 473.69,308.63 L 477.29,306.06 L 480.87,303.53 L 483.91,302.01 L 486.98,300.46 L 488.01,299.95 L 490.53,298.46 L 493.61,295.89 L 494.63,294.85 L 496.13,293.36 L 497.15,292.85 L 498.69,291.81 L 500.74,290.79 L 502.28,289.78 L 503.78,288.25 L 505.83,287.24 L 508.39,286.2 L 509.41,285.69 L 509.41,285.69 L 509.41,285.69 L 508.9,285.19" fill="none" stroke="#3794ff" stroke-width="2"></path><path d="M 511.34,257.14 L 511.42,256.13 L 511.42,256.13 L 511.42,255.12 L 511.42,254.61 L 511.42,254.07 L 511.42,254.07 L 510.95,253.59 L 510.95,253.59 L 510.44,253.59 L 510.44,253.59 L 510.44,253.59 L 510.44,254.07 L 510.44,256.13 L 510.44,258.69 L 510.44,260.72 L 510.44,265.32 L 510.44,268.36 L 510.44,270.92 L 510.44,274.48 L 510.44,277.52 L 510.44,278.56 L 510.44,280.59 L 509.93,281.12 L 509.93,282.62 L 509.93,283.64 L 509.93,284.67 L 509.93,284.67 L 509.93,284.67" fill="none" stroke="#3794ff" stroke-width="2"></path><path d="M 318.65,351.43 L 318.73,349.91 L 318.22,349.41 L 318.22,349.41 L 318.22,348.39 L 318.22,347.86 L 318.22,347.35 L 318.22,347.35 L 318.22,349.41 L 318.22,356.03 L 317.7,357.55 L 317.19,369.78 L 317.19,371.3 L 317.19,372.34 L 317.19,371.84 L 317.19,371.3 L 317.7,370.79 L 319.76,370.29 L 321.8,369.78 L 326.38,369.27 L 328.94,368.74 L 329.93,368.74 L 337.57,369.27 L 339.11,369.78 L 339.11,369.78 L 339.11,369.78 L 338.52,369.78" fill="none" stroke="#3794ff" stroke-width="2"></path><path d="M 350.27,372.85 L 350.35,372.85 L 350.35,373.84 L 350.86,376.4 L 351.37,377.42 L 355.43,379.45 L 356.46,378.46 L 356.97,376.4 L 355.43,373.36 L 354.92,372.85 L 350.86,373.84" fill="none" stroke="#3794ff" stroke-width="2"></path><path d="M 474.64,328.5 L 475.75,327.48 L 475.75,327.48 L 475.75,327.48 L 475.75,326.98 L 475.75,326.98 L 475.75,330.52 L 475.75,333.09 L 475.75,340.22 L 475.75,348.39 L 476.26,354.51 L 476.26,357.01 L 476.26,357.01 L 476.26,354.51 L 476.26,353.97 L 476.18,352.96" fill="none" stroke="#3794ff" stroke-width="2"></path><path d="M 475.16,328.5 L 475.23,327.48 L 474.72,327.48 L 474.72,326.98 L 474.21,326.46 L 474.21,326.46 L 474.21,326.46 L 474.72,326.46 L 475.75,325.96 L 478.82,324.94 L 481.34,324.41 L 483.91,324.41 L 486.47,325.45 L 486.98,325.96 L 488.01,328.01 L 488.01,329.51 L 486.47,331.06 L 484.93,332.58 L 481.34,335.12 L 479.85,336.13 L 478.82,336.67 L 477.8,337.17 L 477.8,337.17 L 478.31,337.17 L 479.34,336.67 L 480.36,336.13 L 482.37,335.12 L 484.93,335.12 L 487.5,335.12 L 488.99,335.12 L 490.53,335.62 L 491.56,336.67 L 492.07,337.17 L 492.58,338.7 L 492.58,340.73 L 492.58,341.23 L 491.56,343.29 L 490.53,344.31 L 490.02,344.81 L 484.93,349.41 L 483.4,349.91 L 482.88,349.91 L 479.34,350.42 L 477.8,350.42 L 476.26,350.42 L 475.75,350.42 L 475.75,349.41" fill="none" stroke="#3794ff" stroke-width="2"></path><path d="M 499.12,352.96 L 498.69,351.94 L 498.18,351.94 L 497.15,353.47 L 497.15,356.51 L 497.15,358.06 L 499.2,360.62 L 500.74,360.62 L 502.79,359.58 L 503.78,356.03 L 502.28,355.02 L 500.74,355.02 L 498.69,355.52" fill="none" stroke="#3794ff" stroke-width="2"></path><path d="M 540.44,200.59 L 540.52,198.02 L 540.52,197.52 L 540.52,198.02 L 540.52,199.57 L 540.52,200.08 L 541.03,207.74 L 541.03,214.84 L 541.03,223.53 L 541.03,228.12 L 541.03,231.19 L 541.03,231.19 L 541.03,227.58 L 541.03,226.57" fill="none" stroke="#3794ff" stroke-width="2"></path><path d="M 541.93,221.46 L 540.52,220.96 L 540.01,220.96 L 540.01,220.96 L 541.03,220.96 L 543.55,220.45 L 546.12,220.45 L 550.69,219.97 L 552.74,219.97 L 554.28,219.47 L 554.79,219.47 L 555.3,219.47" fill="none" stroke="#3794ff" stroke-width="2"></path><path d="M 553.17,209.24 L 554.28,207.74 L 554.79,206.7 L 554.79,206.19 L 554.79,206.19 L 554.79,206.19 L 554.79,206.7 L 554.79,209.74 L 554.79,214.84 L 555.3,222 L 555.3,229.64 L 555.3,233.19 L 555.3,235.25 L 555.3,234.74 L 555.82,232.17 L 556.33,229.64" fill="none" stroke="#3794ff" stroke-width="2"></path><path d="M 567.96,230.65 L 567.01,230.65 L 566.5,230.65 L 565.47,230.65 L 565.47,231.19 L 564.96,231.67 L 564.96,234.24 L 567.01,237.3 L 569.06,238.8 L 570.6,238.8 L 571.62,238.29 L 572.61,234.74 L 571.62,232.69 L 569.57,231.67 L 568.04,231.67 L 567.01,231.67" fill="none" stroke="#3794ff" stroke-width="2"></path><path d="M 58.29,165.11" fill="none" stroke="#3794ff" stroke-width="2"></path><path d="M 234.52,487.99 L 234.6,487.01 L 235.11,486.5 L 235.11,485.97 L 235.11,485.46 L 235.11,484.95 L 235.11,484.95 L 235.11,485.46 L 235.11,486.5 L 235.11,490.06 L 235.11,496.17 L 235.11,504.82 L 235.63,516.06 L 236.14,524.18 L 236.14,534.38 L 236.14,537.96 L 236.14,545.07 L 236.14,546.11 L 236.14,546.11 L 236.14,546.11 L 235.63,543.06" fill="none" stroke="#3794ff" stroke-width="2"></path><path d="M 237.09,487.99 L 238.19,488 L 238.19,487.49 L 238.7,486.5 L 238.7,486.5 L 238.7,485.97 L 238.7,485.97 L 238.7,485.97 L 239.17,485.97 L 240.2,485.97 L 243.27,485.97 L 246.82,485.97 L 251.95,485.97 L 255.49,485.97 L 264.17,486.5 L 266.73,486.5 L 274.38,486.5 L 281.52,486.5 L 290.19,486.5 L 294.25,486.5 L 301.89,486.5 L 304.46,486.5 L 311.6,487.01 L 314.63,487.01 L 321.3,487.01 L 327.4,487.01 L 334.54,487.01 L 338.6,487.01 L 344.24,487.01 L 349.83,487.01 L 355.94,487.01 L 362.05,487.01 L 367.65,485.97 L 374.83,485.46 L 380.43,485.46 L 384.48,485.46 L 390.6,485.46 L 392.64,485.46 L 398.76,485.46 L 401.83,485.46 L 405.89,485.46 L 411.02,485.46 L 415.07,485.46 L 419.18,484.95 L 423.24,484.95 L 426.83,484.45 L 431.91,484.45 L 439.05,483.43 L 443.11,483.43 L 449.77,482.9 L 453.83,482.9 L 458.91,482.9 L 464.55,482.9 L 469.64,482.9 L 475.23,482.9 L 477.29,482.39 L 480.87,482.39 L 484.42,481.88 L 490.02,481.4 L 492.07,480.9 L 494.12,480.9 L 494.63,481.4 L 494.63,481.4 L 494.63,481.88" fill="none" stroke="#3794ff" stroke-width="2"></path><path d="M 239.1,546.61 L 240.2,545.6 L 240.2,545.6 L 240.2,545.6 L 240.2,545.6 L 240.71,545.6 L 241.22,545.6 L 244.81,545.6 L 251.44,545.6 L 257.03,545.6 L 261.6,545.6 L 266.22,545.6 L 274.89,545.6 L 286.6,545.07 L 290.7,545.07 L 300.35,544.56 L 306.98,544.08 L 315.14,544.08 L 318.73,543.57 L 325.87,543.06 L 333,542.56 L 340.65,542.56 L 344.71,542.56 L 350.86,542.56 L 359.53,541.51 L 366.67,541.01 L 373.81,540.5 L 378.89,540.5 L 385,540.5 L 390.6,541.01 L 397.73,541.01 L 403.88,541.01 L 408.97,541.01 L 413.54,541.01 L 421.18,541.51 L 426.32,542.02 L 431.4,542.02 L 434.99,542.02 L 443.62,543.06 L 445.67,543.06 L 449.26,544.08 L 454.85,544.56 L 458.4,544.56 L 464.55,544.56 L 468.1,544.56 L 471.69,544.56 L 473.69,544.56 L 474.21,544.56 L 474.21,544.56 L 473.69,544.56 L 473.69,544.56 L 473.69,544.56" fill="none" stroke="#3794ff" stroke-width="2"></path><path d="M 499.64,480.89 L 498.69,481.4 L 498.18,481.88 L 497.67,482.39 L 497.67,482.9 L 497.67,483.43 L 497.67,484.45 L 497.67,487.01 L 497.67,488.51 L 498.18,491.58 L 498.69,494.62 L 499.2,498.73 L 499.2,503.3 L 499.2,507.38 L 499.2,511.44 L 499.2,514.01 L 498.69,516.54 L 498.69,521.14 L 498.69,523.68 L 499.2,525.73 L 499.72,528.77 L 499.72,530.83 L 499.72,532.35 L 499.72,532.83 L 499.72,533.87 L 499.72,534.38 L 499.72,535.4 L 500.23,535.9 L 500.23,535.9 L 500.23,535.9 L 500.23,535.9 L 500.23,536.44 L 500.23,536.44 L 500.23,536.44 L 500.23,536.95 L 500.23,536.95 L 500.23,537.45 L 499.72,537.96 L 499.72,537.96 L 499.72,538.44 L 499.72,538.44 L 499.2,538.95 L 499.2,538.95 L 499.2,539.48 L 499.2,539.48 L 499.2,539.99 L 499.2,539.99 L 499.2,540.5 L 499.2,540.5 L 499.2,541.01 L 498.69,541.01 L 497.15,541.01 L 494.63,541.51 L 488.99,542.02 L 483.4,542.02 L 478.82,542.56 L 475.75,543.06 L 473.23,543.06 L 472.71,543.06 L 472.71,542.56" fill="none" stroke="#3794ff" stroke-width="2"></path><path d="M 497.58,480.36 L 498.18,480.36 L 499.2,479.35 L 502.79,476.78 L 507.36,473.74 L 517.57,467.62 L 522.66,465.06 L 525.22,464.07 L 525.22,463.56 L 525.22,463.56 L 524.71,464.07 L 524.71,464.07 L 524.71,464.07 L 524.71,464.07 L 524.71,464.07 L 524.71,463.56 L 525.22,463.06 L 525.74,463.06 L 526.72,462.01 L 527.74,461 L 528.26,461 L 528.77,460.49 L 529.79,459.45 L 530.82,458.94 L 531.85,457.96 L 532.36,457.96 L 532.36,457.45 L 532.36,457.45 L 532.36,457.45 L 532.36,457.96 L 532.36,458.46 L 531.85,459.45 L 531.85,461 L 531.85,463.06 L 531.33,466.61 L 531.33,468.13 L 531.33,472.72 L 531.33,477.29 L 531.33,482.9 L 531.33,486.5 L 531.33,489.55 L 531.33,493.61 L 531.33,496.67 L 531.85,498.73 L 532.36,502.79 L 532.36,503.81 L 532.36,504.34 L 532.36,504.34 L 532.36,503.81 L 532.87,502.79" fill="none" stroke="#3794ff" stroke-width="2"></path><path d="M 533.31,505.33 L 533.85,504.34 L 533.85,504.34 L 533.85,503.81 L 533.85,503.81 L 533.39,504.82 L 532.87,505.83 L 530.82,508.4 L 528.26,511.44 L 524.2,515.53 L 522.15,517.56 L 517.57,521.67 L 511.42,528.26 L 507.36,531.85 L 502.28,535.9 L 498.18,537.96 L 497.67,537.96 L 498.18,537.45 L 499.2,536.95" fill="none" stroke="#3794ff" stroke-width="2"></path><path d="M 238.62,486.5 L 237.68,487.01 L 237.68,487.01 L 237.68,487.01 L 237.68,487.01 L 238.19,486.5 L 240.2,484.95 L 244.3,482.39 L 248.87,479.85 L 256.01,476.28 L 262.12,473.23 L 266.22,470.67 L 266.22,470.67 L 265.71,470.67 L 263.66,472.22" fill="none" stroke="#3794ff" stroke-width="2"></path><path d="M 264.09,469.17 L 265.19,469.68 L 265.71,469.68 L 266.22,469.68 L 267.25,469.17 L 268.27,469.17 L 273.35,467.62 L 278.95,466.61 L 285.06,466.1 L 291.21,465.57 L 298.35,465.06 L 303.43,465.06 L 313.13,465.06 L 318.22,465.06 L 325.35,465.06 L 333.51,465.06 L 341.16,464.58 L 347.78,464.58 L 354.92,464.58 L 361.54,464.58 L 367.65,465.57 L 371.75,466.1 L 379.91,467.12 L 382.95,467.62 L 388.07,468.13 L 394.7,468.13 L 400.29,468.13 L 407.94,468.13 L 413.03,467.62 L 419.69,467.62 L 426.83,467.12 L 431.4,466.61 L 435.97,466.61 L 443.11,466.1 L 447.21,465.57 L 453.83,465.06 L 459.42,464.58 L 464.55,464.58 L 469.12,464.58 L 473.69,464.07 L 478.31,463.56 L 482.88,463.56 L 486.98,463.06 L 490.53,463.06 L 495.14,462.01 L 499.72,461 L 504.8,460.49 L 510.44,460.49 L 513.47,459.98 L 515.53,459.45 L 517.57,459.45 L 518.09,459.45 L 518.52,459.45" fill="none" stroke="#3794ff" stroke-width="2"></path><path d="M 518.99,463.56 L 519.59,462.52 L 519.59,462.52 L 520.61,462.01 L 521.12,461.51 L 522.15,461.51 L 522.66,461 L 524.71,460.49 L 527.74,459.98 L 529.28,459.98 L 531.33,459.45 L 531.85,459.45 L 532.36,459.45 L 532.87,458.94" fill="none" stroke="#3794ff" stroke-width="2"></path><path d="M 522.58,494.62 L 523.68,494.11 L 525.22,493.61 L 526.25,493.12 L 530.31,492.08 L 533.85,491.07 L 538.98,490.56 L 547.65,489.01 L 552.23,488.51 L 559.36,488 L 568.55,486.5 L 578.25,484.95 L 587.9,482.9 L 595.04,481.88 L 601.19,480.9 L 605.76,480.36 L 606.28,480.36 L 605.76,480.36 L 604.22,480.9 L 603.2,481.4 L 601.19,482.39 L 601.19,482.39" fill="none" stroke="#3794ff" stroke-width="2"></path><path d="M 608.25,474.78 L 607.3,475.29 L 606.79,475.29 L 605.25,475.79 L 604.74,475.79 L 604.22,475.79 L 606.28,475.79 L 609.35,475.79 L 615.46,476.78 L 619.52,477.82 L 621.06,479.85 L 621.57,481.88 L 619.01,484.45 L 611.36,488 L 603.2,490.56 L 599.65,491.07 L 598.63,491.58" fill="none" stroke="#3794ff" stroke-width="2"></path><path d="M 227.39,514 L 226.44,514.01 L 225.93,514.01 L 225.93,514.01 L 225.42,514.01 L 225.42,513.5 L 224.9,513.5 L 223.88,513.5 L 219.82,513.5 L 217.26,513.5 L 206.06,514.01 L 197.9,514.51 L 185.17,516.06 L 173.42,517.05 L 163.21,517.56 L 154.57,518.07 L 148.94,518.07 L 147.91,518.07 L 148.42,518.07 L 149.96,518.07 L 154.06,518.07 L 155.56,518.07" fill="none" stroke="#3794ff" stroke-width="2"></path><path d="M 150.4,510.94 L 150.99,509.95 L 150.99,509.95 L 149.45,509.41 L 146.93,510.94 L 141.8,514.51 L 135.18,519.1 L 133.13,521.67 L 133.13,525.22 L 136.72,527.22 L 146.93,530.83 L 149.45,531.85" fill="none" stroke="#3794ff" stroke-width="2"></path><path d="M 167.74,462.52 L 168.33,461 L 168.33,460.49 L 167.82,459.98 L 167.31,462.52 L 167.31,464.58 L 166.8,472.72 L 166.8,478.33 L 165.77,484.95 L 165.77,484.95" fill="none" stroke="#3794ff" stroke-width="2"></path><path d="M 164.15,463.05 L 164.23,462.01 L 164.23,461.51 L 164.75,461 L 167.82,459.98 L 170.86,459.45 L 178.5,458.46 L 181.06,457.96 L 182.09,457.96 L 182.09,457.45 L 181.58,457.45" fill="none" stroke="#3794ff" stroke-width="2"></path><path d="M 167.23,467.62 L 170.38,467.62 L 176.49,467.62 L 181.06,467.12 L 184.14,465.57" fill="none" stroke="#3794ff" stroke-width="2"></path><path d="M 571.54,443.67 L 571.54,442.66 L 571.62,442.12 L 571.11,441.64 L 570.6,441.64 L 570.6,445.19 L 570.6,452.35 L 571.11,463.56 L 571.11,469.17 L 570.6,471.71 L 570.08,469.68 L 570.08,462.52" fill="none" stroke="#3794ff" stroke-width="2"></path><path d="M 569.49,445.19 L 569.06,444.18 L 569.06,444.18 L 570.6,443.67 L 573.12,443.16 L 577.73,441.64 L 582.82,440.12 L 585.38,439.08 L 585.38,439.08 L 585.38,439.61" fill="none" stroke="#3794ff" stroke-width="2"></path><path d="M 567.96,453.33 L 568.04,452.35 L 568.55,452.35 L 575.17,451.33 L 578.76,450.8 L 587.39,449.28 L 588.41,449.28" fill="none" stroke="#3794ff" stroke-width="2"></path><path d="M 471.09,501.78 L 471.61,500.73 L 471.69,500.73 L 471.69,500.23 L 471.69,502.79 L 471.69,505.83 L 471.69,512.46 L 471.18,517.56 L 471.18,518.57 L 470.66,518.07 L 470.15,516.06 L 469.64,512.46 L 469.64,510.94 L 469.64,508.91 L 469.64,508.4 L 469.64,507.38 L 470.15,507.38 L 471.18,507.89 L 473.23,507.89 L 474.21,507.89 L 476.26,507.89 L 477.8,507.38 L 478.31,506.85 L 478.82,506.34" fill="none" stroke="#3794ff" stroke-width="2"></path><path d="M 479.26,500.23 L 478.82,500.23 L 479.34,503.81 L 479.34,509.41 L 479.85,517.05 L 479.85,523.16 L 480.36,522.66 L 480.87,519.1" fill="none" stroke="#3794ff" stroke-width="2"></path><path d="M 524.64,538.44 L 524.71,537.45 L 524.71,537.45 L 525.22,538.95 L 525.74,543.06 L 526.72,552.73 L 526.72,563.44 L 525.74,570.06 L 525.22,570.57 L 525.22,567.01 L 525.22,561.89" fill="none" stroke="#3794ff" stroke-width="2"></path><path d="M 524.64,542.55 L 524.71,542.56 L 527.23,541.51 L 530.82,539.99 L 532.87,539.48 L 533.85,539.99 L 533.39,542.02 L 531.33,545.6 L 529.28,548.16 L 527.74,550.67 L 527.23,551.72 L 527.74,551.72 L 531.85,550.67 L 534.37,550.67 L 536.93,550.17 L 538.47,550.67 L 540.01,553.23 L 540.01,557.32 L 537.96,561.38 L 535.9,562.93 L 531.33,564.96 L 527.23,564.96 L 525.74,564.45 L 524.2,561.89" fill="none" stroke="#3794ff" stroke-width="2"></path><path d="M 323.22,556.28 L 323.3,554.28 L 323.3,554.28 L 323.3,554.78 L 323.3,556.79 L 322.79,559.88 L 321.3,563.94 L 318.73,573.61 L 317.19,577.72 L 316.68,579.72 L 316.68,579.72 L 317.19,578.71 L 319.24,577.72 L 321.3,577.19 L 326.38,576.17 L 335.05,574.11 L 340.13,573.61 L 344.24,574.11 L 345.22,576.68 L 343.21,578.71 L 342.7,578.71" fill="none" stroke="#3794ff" stroke-width="2"></path></svg>