<svg id="svg" xmlns="http://www.w3.org/2000/svg" viewBox="16.81999969482422 86.12000274658203 569.5899658203125 228.45001220703125" height="228.45001220703125"><path d="M 103.99,150.14 L 103.82,151.16 L 103.82,153.19 L 103.82,155.75 L 104.33,159.81 L 104.33,163.41 L 104.8,168.49 L 105.31,174.58 L 105.31,180.69 L 105.82,183.76 L 105.82,194.47 L 105.82,201.09 L 105.82,206.7 L 105.82,209.24 L 105.82,216.9 L 105.82,221.47 L 106.33,227.58 L 106.85,231.67 L 106.85,233.7 L 106.85,239.84 L 106.85,243.9 L 106.85,246.46 L 106.85,248.52 L 106.85,250.02 L 106.85,249 L 106.85,247.99" fill="none" stroke="#3794ff" stroke-width="2"></path><path d="M 106,151.69 L 106.85,151.69 L 106.85,151.16 L 107.36,151.16 L 107.36,151.16 L 107.87,151.16 L 109.93,150.65 L 115.52,149.64 L 119.11,149.13 L 131.85,147.58 L 135.9,147.58 L 145.09,147.58 L 150.68,148.09 L 156.84,148.09 L 162.95,148.62 L 167.01,149.13 L 174.14,150.14 L 176.71,150.65 L 184.36,150.65 L 190.98,151.16 L 196.57,151.69 L 202.73,151.69 L 209.35,151.69 L 215.46,151.16 L 219,150.65 L 221.57,151.16 L 224.65,151.16 L 227.68,151.16 L 231.27,151.16 L 233.79,151.16 L 237.38,151.16 L 242.46,151.16 L 246.56,151.16 L 249.6,150.65 L 251.65,150.14 L 252.67,150.14 L 254.21,150.65" fill="none" stroke="#3794ff" stroke-width="2"></path><path d="M 117.23,251.56 L 114.5,251.56 L 113.47,251.56 L 112.44,251.56 L 111.98,252.07 L 111.98,252.07 L 111.46,252.07 L 110.95,251.56 L 110.95,251.03 L 110.95,250.52 L 110.95,250.02 L 109.93,249.51 L 109.41,249.51 L 108.9,249.51 L 108.39,249.51 L 108.39,249.51 L 108.39,249.51 L 109.93,249.51 L 111.98,249.51 L 117.06,249.51 L 123.68,249 L 128.25,247.99 L 136.42,246.46 L 141.03,244.91 L 148.16,243.39 L 150.68,243.39 L 158.34,242.91 L 163.46,242.91 L 169.06,242.91 L 173.12,242.91 L 174.65,242.91 L 182.82,242.91 L 186.92,241.87 L 190.46,241.36 L 195.08,240.86 L 199.13,240.86 L 203.19,240.86 L 206.27,240.35 L 210.37,239.84 L 214.94,238.8 L 220.03,238.29 L 224.13,238.29 L 228.19,238.8 L 232.81,239.31 L 237.38,240.35 L 243.49,240.35 L 249.6,240.35 L 257.24,240.35 L 259.3,240.35 L 260.49,240.35" fill="none" stroke="#3794ff" stroke-width="2"></path><path d="M 255.92,148.62 L 254.72,148.09 L 254.72,148.09 L 254.72,148.09 L 255.75,148.62 L 256.73,150.14 L 257.24,153.19 L 257.76,153.69 L 257.76,159.3 L 258.27,164.4 L 258.27,167.98 L 258.27,172.07 L 258.27,175.62 L 258.27,178.69 L 258.27,181.74 L 258.78,184.8 L 258.78,187.85 L 258.78,189.9 L 259.3,193.46 L 259.3,195.49 L 259.3,198.56 L 259.3,202.14 L 259.3,205.68 L 258.78,208.25 L 258.27,211.8 L 258.27,215.35 L 258.27,216.9 L 258.27,221.47 L 258.27,224.54 L 258.27,228.12 L 258.27,231.19 L 258.27,232.17 L 258.27,233.7 L 258.27,233.7 L 258.27,233.7 L 258.44,233.7" fill="none" stroke="#3794ff" stroke-width="2"></path><path d="M 266.6,161.86 L 267.45,161.87 L 268.48,160.85 L 271,160.35 L 274.59,159.3 L 277.15,159.3" fill="none" stroke="#3794ff" stroke-width="2"></path><path d="M 280.36,157.78 L 281.73,158.28 L 284.29,158.28 L 286.81,158.28 L 288.86,158.28 L 289.38,158.8 L 289.89,159.3 L 288.86,160.35 L 287.84,160.85 L 286.81,161.87" fill="none" stroke="#3794ff" stroke-width="2"></path><path d="M 270.7,179.19 L 269.51,179.7 L 268.99,180.19 L 268.99,180.19 L 268.48,180.19 L 267.97,180.19 L 267.97,180.19 L 268.99,180.19 L 272.54,180.19 L 275.1,180.19 L 279.67,179.7 L 283.26,179.7 L 285.32,179.7" fill="none" stroke="#3794ff" stroke-width="2"></path><path d="M 285.49,176.13 L 284.29,176.13 L 284.29,176.13 L 285.32,176.13 L 287.32,176.13 L 289.89,176.13 L 291.94,176.63 L 292.96,177.65 L 292.96,179.2 L 291.94,180.19 L 289.89,181.74 L 288.35,182.75 L 287.84,183.26 L 287.49,183.26" fill="none" stroke="#3794ff" stroke-width="2"></path><path d="M 276.3,197.51 L 274.59,197.52 L 273.57,197.52 L 273.05,197.52 L 272.54,197.52 L 272.54,197.52 L 273.57,197.52 L 276.13,197.52 L 279.67,197.52 L 283.26,197.52 L 285.83,198.02 L 286.81,198.02" fill="none" stroke="#3794ff" stroke-width="2"></path><path d="M 291.09,193.96 L 290.91,193.96 L 291.43,193.96 L 293.95,193.96 L 296.51,194.47 L 297.54,194.98 L 298.56,195.49 L 298.05,197.52 L 294.97,199.57 L 291.94,201.09 L 291.43,201.62 L 291.09,202.14" fill="none" stroke="#3794ff" stroke-width="2"></path><path d="M 271.18,218.93 L 271,219.97 L 271.51,219.97 L 272.03,219.97 L 273.57,219.97 L 276.13,219.97 L 279.67,219.97 L 283.26,219.97 L 285.83,219.97" fill="none" stroke="#3794ff" stroke-width="2"></path><path d="M 289.55,216.9 L 289.38,217.92 L 289.38,217.92 L 289.38,217.92 L 290.91,217.92 L 293.48,217.92 L 296,218.42 L 296,218.93 L 296.51,219.47 L 294.97,220.96 L 292.45,222.51 L 290.4,224.03 L 288.86,225.07 L 288.35,225.58" fill="none" stroke="#3794ff" stroke-width="2"></path><path d="M 290.06,132.3 L 290.91,131.29 L 290.91,130.76 L 290.91,130.76 L 290.91,130.76 L 290.91,130.76 L 290.4,131.29 L 289.89,132.3 L 289.38,133.82 L 288.86,134.87 L 287.84,135.86 L 287.32,136.36 L 286.3,136.36 L 285.83,136.36 L 285.32,135.35 L 284.8,133.82 L 284.29,133.32 L 282.75,132.3 L 281.73,132.3 L 280.19,132.3 L 279.67,132.3 L 277.67,132.81 L 276.13,135.35 L 275.1,137.91 L 275.1,140.48 L 276.64,141.97 L 279.16,142.48 L 281.73,141.46 L 283.78,138.93 L 284.29,135.86 L 283.78,133.32 L 282.75,132.81 L 282.42,132.81" fill="none" stroke="#3794ff" stroke-width="2"></path><path d="M 31.06,213.85 L 30.37,212.82 L 30.37,212.82 L 30.37,212.31 L 30.37,212.31 L 30.89,212.31 L 34.47,213.35 L 41.6,214.37 L 51.78,215.35 L 66.09,215.86 L 70.15,215.86 L 78.82,213.86 L 80.36,213.35 L 80.87,213.35 L 80.87,213.35" fill="none" stroke="#3794ff" stroke-width="2"></path><path d="M 36.18,203.12 L 35.5,204.14 L 33.96,205.18 L 31.91,206.19 L 29.86,207.21 L 28.36,207.74 L 28.36,207.74 L 26.82,208.25 L 26.82,208.25 L 26.82,208.73 L 27.33,209.24 L 27.85,210.28 L 27.85,211.29 L 27.85,211.8 L 28.36,214.84 L 28.83,217.41 L 30.37,221.47 L 33.45,226.06 L 37.51,229.64 L 39.56,230.15 L 40.07,230.15 L 40.76,230.14" fill="none" stroke="#3794ff" stroke-width="2"></path><path d="M 48.92,163.89 L 47.72,163.89 L 47.72,165.42 L 47.72,170.01 L 48.23,179.7 L 48.74,187.85 L 48.74,190.41 L 49.25,189.9 L 49.43,189.37" fill="none" stroke="#3794ff" stroke-width="2"></path><path d="M 45.33,166.46 L 45.15,165.42 L 45.15,164.91 L 45.66,163.89 L 46.69,163.41 L 49.25,162.37 L 53.82,161.87 L 58.95,161.87 L 62.5,161.87 L 63.01,161.87 L 64.21,162.37" fill="none" stroke="#3794ff" stroke-width="2"></path><path d="M 49.43,172.06 L 47.72,172.07 L 47.72,172.07 L 51.31,171.53 L 55.36,171.03 L 59.93,171.03" fill="none" stroke="#3794ff" stroke-width="2"></path><path d="M 408.84,110.91 L 408.15,112.92 L 407.64,115.48 L 407.64,119.03 L 407.64,124.64 L 407.64,132.3 L 408.67,136.9 L 409.18,143.01 L 409.69,149.64 L 409.69,153.19 L 410.21,162.88 L 410.21,170.01 L 410.21,176.13 L 410.21,182.24 L 409.69,188.36 L 409.18,194.98 L 408.67,204.14 L 408.15,209.74 L 406.65,217.92 L 406.15,220.96 L 405.12,227.58 L 404.61,234.74 L 404.61,236.8 L 404.61,240.86 L 404.61,244.91 L 404.61,246.46 L 404.26,246.97" fill="none" stroke="#3794ff" stroke-width="2"></path><path d="M 401.19,117.03 L 401.02,118.53 L 401.02,118.53 L 400.5,119.03 L 400.5,119.57 L 400.5,119.03 L 401.02,118.02 L 403.07,113.96 L 404.61,111.42 L 405.63,110.41 L 407.17,108.86 L 407.64,108.86 L 408.67,110.41 L 409.18,111.42 L 410.21,117.54 L 411.23,121.6 L 413.28,127.2 L 413.28,128.25 L 413.28,128.25 L 413.28,127.2 L 413.28,126.7 L 412.77,126.7" fill="none" stroke="#3794ff" stroke-width="2"></path><path d="M 423.63,98.15 L 424.47,96.63 L 424.47,96.12 L 424.47,96.12 L 424.47,98.68 L 424.47,101.73 L 424.98,104.27 L 426.52,105.31 L 428.58,105.31 L 430.58,102.74 L 431.61,100.69 L 432.12,100.21 L 431.61,99.7 L 431.1,100.21 L 430.58,100.69 L 430.07,102.74 L 430.07,105.31 L 431.1,108.86 L 433.14,112.41 L 434.68,115.48 L 434.68,118.53 L 434.68,119.57 L 432.64,120.07 L 429.6,119.57 L 427.55,116.52 L 427.21,115.99" fill="none" stroke="#3794ff" stroke-width="2"></path><path d="M 344.62,186.83 L 342.91,187.85 L 342.4,188.36 L 342.4,188.86 L 342.4,188.86 L 343.42,188.86 L 345.47,188.36 L 347.99,187.34 L 351.07,186.83 L 354.14,186.83 L 361.28,186.3 L 368.93,185.82 L 377.56,185.82 L 383.71,185.82 L 388.28,185.82 L 395.93,185.82 L 424.98,184.8 L 436.74,184.3 L 444.38,183.76 L 450.49,183.26 L 456.6,183.26 L 460.66,183.26 L 466.3,182.75 L 471.39,182.75 L 476.99,182.75 L 483.09,182.24 L 488.73,181.74 L 498.39,181.23 L 506.04,181.23 L 512.19,181.23 L 517.79,180.69 L 523.39,180.69 L 526.97,180.69 L 530.01,180.69 L 534.11,180.69 L 537.14,180.69 L 541.76,180.69 L 543.29,180.69 L 543.29,181.23 L 541.76,181.23" fill="none" stroke="#3794ff" stroke-width="2"></path><path d="M 546.5,175.62 L 544.79,175.62 L 544.28,175.62 L 542.27,176.13 L 540.73,176.13 L 540.22,176.63 L 540.73,176.63 L 543.76,177.14 L 549.92,177.65 L 553.46,178.69 L 554.49,179.2 L 555,181.74 L 551.93,183.76 L 548.38,185.31 L 544.79,186.83 L 540.73,187.34 L 540.73,187.34" fill="none" stroke="#3794ff" stroke-width="2"></path><path d="M 576.07,199.06 L 576.41,198.02 L 576.41,198.02 L 576.41,198.02 L 576.41,198.02 L 576.41,198.02 L 575.9,198.56 L 575.38,199.06 L 572.35,202.14 L 570.81,203.63 L 570.3,204.14 L 569.27,204.14 L 568.76,203.63 L 568.76,202.64 L 568.76,201.09 L 568.25,200.08 L 567.73,200.08 L 566.19,199.57 L 564.7,199.57 L 563.16,199.57 L 562.14,200.59 L 559.57,203.12 L 558.08,205.18 L 557.57,208.73 L 557.57,211.29 L 559.06,212.31 L 562.14,212.31 L 564.19,211.29 L 564.7,210.28 L 564.7,208.25 L 564.19,205.68 L 563.85,205.68" fill="none" stroke="#3794ff" stroke-width="2"></path><path d="M 367.57,152.68 L 368.42,152.68 L 368.93,152.68 L 369.4,152.17 L 369.91,152.17 L 370.43,151.69 L 371.96,151.69 L 373.5,151.16 L 374.53,150.65 L 377.05,150.65 L 378.59,150.65 L 382.17,150.14 L 384.69,150.14 L 387.26,150.14 L 389.82,150.14 L 394.39,149.64 L 397.47,149.64 L 401.02,149.64 L 403.07,149.13 L 406.15,149.13 L 408.67,148.62 L 410.21,148.62 L 412.25,148.62 L 414.31,148.62 L 416.31,148.62 L 418.88,148.62 L 421.95,148.62 L 426.01,148.62 L 427.55,148.62 L 434.68,148.62 L 437.25,148.62 L 440.79,148.62 L 443.87,148.62 L 445.88,149.13 L 445.88,149.13" fill="none" stroke="#3794ff" stroke-width="2"></path><path d="M 373.68,242.91 L 372.47,242.91 L 371.96,242.91 L 371.45,242.38 L 371.45,242.38 L 371.45,241.87 L 371.45,241.36 L 371.45,241.36 L 371.45,240.86 L 371.45,240.86 L 371.45,240.86 L 371.45,240.86 L 371.45,240.86 L 370.94,240.86 L 370.94,240.86 L 370.43,241.36 L 370.94,241.36 L 371.45,241.36 L 374.01,241.36 L 377.05,240.86 L 381.15,240.35 L 385.72,240.35 L 390.34,240.35 L 393.88,240.35 L 396.96,239.84 L 400.5,239.31 L 403.07,238.8 L 405.12,238.29 L 408.67,238.29 L 411.74,237.78 L 414.78,237.78 L 417.34,237.78 L 420.93,237.78 L 423.45,237.3 L 424.98,237.3 L 427.55,237.3 L 429.6,237.3 L 431.61,237.3 L 434.68,236.8 L 436.22,236.8" fill="none" stroke="#3794ff" stroke-width="2"></path><path d="M 446.56,155.24 L 446.9,154.2 L 446.9,153.69 L 447.42,153.19 L 447.42,152.68 L 447.42,152.17 L 447.42,152.17 L 447.42,152.17 L 447.42,151.69 L 447.42,151.16 L 447.42,150.65 L 447.42,150.14 L 447.42,150.14 L 447.42,149.64 L 446.9,149.13 L 446.9,149.13 L 446.9,148.62 L 446.9,148.62 L 446.9,148.62 L 446.9,148.62 L 446.9,150.14 L 446.9,152.17 L 446.9,155.75 L 446.39,159.3 L 446.39,161.87 L 446.39,166.97 L 446.39,172.07 L 446.39,174.1 L 446.39,177.65 L 446.39,179.7 L 445.88,183.26 L 445.88,185.82 L 445.88,190.92 L 445.88,193.46 L 445.88,197.03 L 445.88,199.06 L 445.88,202.14 L 445.88,205.68 L 445.88,206.7 L 445.88,211.8 L 445.88,215.86 L 445.88,217.41 L 445.88,219.97 L 445.88,221.47 L 445.88,224.54 L 445.88,226.57 L 445.88,228.12 L 445.88,230.15 L 445.88,232.17 L 445.88,234.24 L 445.88,235.75 L 445.88,236.26 L 445.88,237.3 L 445.88,237.78 L 445.88,238.29 L 445.88,238.8 L 445.88,238.8 L 445.88,238.8 L 445.88,238.8 L 445.37,238.8 L 445.37,238.8 L 445.37,238.8 L 445.37,238.8 L 445.37,238.8 L 445.37,238.8 L 445.37,238.8 L 445.37,238.8 L 444.9,238.8 L 444.9,238.8 L 444.38,238.8 L 443.87,238.8 L 443.36,238.8 L 442.85,238.29 L 441.82,238.29 L 441.31,238.29 L 440.79,237.78 L 440.79,237.78 L 440.79,237.78 L 440.79,237.3" fill="none" stroke="#3794ff" stroke-width="2"></path><path d="M 445.07,149.64 L 445.37,149.64 L 445.37,150.14 L 445.37,152.68 L 445.37,154.74 L 445.88,156.77 L 445.88,157.78 L 445.88,165.92 L 445.88,171.03 L 445.88,177.65 L 445.88,183.26 L 445.37,188.36 L 444.38,197.52 L 444.38,199.06 L 443.36,203.63 L 443.36,212.82 L 443.36,220.96 L 443.87,222.51 L 444.38,223.02 L 444.38,224.03 L 444.38,225.58 L 444.38,226.06 L 444.38,226.57 L 444.38,226.57 L 444.38,226.57 L 444.38,224.54" fill="none" stroke="#3794ff" stroke-width="2"></path><path d="M 446.05,154.73 L 445.88,153.19 L 445.88,152.17 L 445.88,152.17 L 445.88,151.16 L 445.88,150.65 L 445.88,150.65 L 445.88,150.14 L 445.88,149.64 L 445.88,149.64 L 445.88,149.64 L 445.88,150.14 L 445.88,152.17 L 445.88,155.75 L 445.88,158.8 L 445.88,168.49 L 445.37,176.13 L 445.37,181.23 L 445.37,189.37 L 445.37,197.03 L 445.37,201.09 L 444.9,205.18 L 444.9,210.78 L 444.9,211.8 L 445.37,218.93 L 445.37,226.06 L 445.37,230.15 L 445.37,232.17 L 445.37,234.24 L 445.37,235.75 L 445.88,239.31 L 445.88,241.87 L 445.88,242.91 L 445.88,243.39 L 445.88,243.39 L 445.88,242.38 L 446.39,238.8" fill="none" stroke="#3794ff" stroke-width="2"></path><path d="M 413.96,161.35 L 415.8,161.36 L 416.83,161.36 L 417.34,161.36 L 418.37,161.36 L 419.9,160.85 L 420.93,160.85 L 422.42,160.35 L 427.04,159.81 L 428.58,159.81 L 432.12,159.3 L 435.71,158.8 L 436.74,158.28 L 436.74,158.28 L 436.74,158.8 L 436.22,158.8" fill="none" stroke="#3794ff" stroke-width="2"></path><path d="M 418.54,167.98 L 417.34,168.49 L 416.31,168.97 L 416.31,168.97 L 415.8,169.5 L 415.8,169.5 L 415.8,169.5 L 415.8,169.5 L 419.39,169.5 L 421.95,169.5 L 426.52,168.97 L 430.07,168.49 L 435.2,167.98 L 439.77,167.98 L 441.31,167.98 L 442.33,167.98 L 442.33,167.98 L 441.82,167.98 L 441.31,167.98" fill="none" stroke="#3794ff" stroke-width="2"></path><path d="M 417,180.69 L 415.8,181.74 L 414.78,181.74 L 414.78,181.74 L 414.78,181.74 L 414.78,181.74 L 415.8,181.74 L 417.85,181.23 L 420.41,181.23 L 424.98,180.69 L 428.58,180.69 L 432.64,180.69 L 437.72,180.69 L 438.23,180.69 L 440.79,180.69 L 441.82,180.69 L 441.82,180.69 L 442.33,180.69 L 442.33,180.69" fill="none" stroke="#3794ff" stroke-width="2"></path><path d="M 413.45,196.52 L 411.74,196.53 L 411.74,196.53 L 411.74,196.02 L 413.79,195.49 L 415.8,195.49 L 419.39,194.98 L 422.42,194.47 L 428.06,194.47 L 430.58,194.47 L 434.17,195.49 L 436.74,195.49 L 439.77,195.49 L 441.31,195.49 L 443.87,195.49 L 443.87,196.02 L 442.33,196.53 L 441.82,196.53" fill="none" stroke="#3794ff" stroke-width="2"></path><path d="M 412.94,206.7 L 413.79,206.19 L 414.31,206.19 L 414.31,206.19 L 415.29,206.19 L 416.31,206.19 L 418.37,206.19 L 423.96,206.7 L 429.09,206.7 L 432.64,206.7 L 436.22,207.21 L 438.74,207.21 L 440.28,207.74 L 440.79,207.74 L 441.31,208.25 L 441.82,208.73 L 441.99,208.73" fill="none" stroke="#3794ff" stroke-width="2"></path><path d="M 414.48,220.96 L 413.28,220.96 L 412.77,220.96 L 412.77,220.96 L 412.77,220.96 L 412.77,220.96 L 414.78,220.96 L 417.85,220.45 L 420.41,220.45 L 428.06,219.47 L 434.17,218.93 L 438.23,218.93 L 439.26,218.93 L 439.26,218.93 L 438.23,219.47 L 437.72,219.97" fill="none" stroke="#3794ff" stroke-width="2"></path><path d="M 414.48,231.18 L 413.28,231.19 L 412.77,231.19 L 412.25,231.19 L 412.25,231.19 L 412.25,231.67 L 411.74,231.67 L 411.23,231.67 L 410.72,232.17 L 410.72,232.17 L 410.72,232.17 L 410.72,232.17 L 410.72,232.17 L 412.25,231.67 L 415.29,231.19 L 421.44,230.15 L 429.6,229.13 L 431.61,229.13 L 441.31,228.12 L 444.9,228.12 L 445.88,228.12" fill="none" stroke="#3794ff" stroke-width="2"></path><path d="M 253.87,275.01 L 252.67,274.48 L 252.67,274.48 L 252.67,274.48 L 252.67,275.01 L 253.7,277.52 L 256.22,281.12 L 258.27,283.64 L 268.48,293.86 L 274.08,298.46 L 277.15,301.5 L 277.67,302.01 L 276.64,302.52 L 275.62,302.52 L 275.28,302.51" fill="none" stroke="#3794ff" stroke-width="2"></path><path d="M 272.2,278.56 L 272.03,277.52 L 272.54,277.52 L 272.54,277.01 L 272.03,277.01 L 270.02,278.05 L 264.89,283.12 L 261.86,286.2 L 253.18,295.89 L 246.56,302.01 L 244.51,304.57 L 244,304.57 L 245.03,303.02 L 247.08,300.46 L 247.59,300.46" fill="none" stroke="#3794ff" stroke-width="2"></path><path d="M 254.39,294.34 L 253.7,293.36 L 253.7,293.36 L 253.7,293.36 L 253.7,292.85 L 253.7,292.31 L 253.7,292.31 L 253.7,291.81 L 252.67,291.81 L 252.16,291.81 L 249.6,293.36 L 247.59,295.36 L 245.54,298.46 L 245.03,302.01 L 245.03,303.02 L 246.05,303.02" fill="none" stroke="#3794ff" stroke-width="2"></path><path d="M 268.66,295.89 L 268.99,294.85 L 268.99,294.34 L 269.51,294.34 L 270.02,294.34 L 271.51,294.34 L 273.57,294.34 L 276.13,295.36 L 277.15,296.91 L 277.15,299.47 L 276.64,301.5 L 275.62,303.02 L 275.62,303.02" fill="none" stroke="#3794ff" stroke-width="2"></path><path d="M 259.98,246.46 L 260.32,246.46 L 260.32,246.97 L 260.32,248.52 L 260.32,250.02 L 260.32,251.03" fill="none" stroke="#3794ff" stroke-width="2"></path><path d="M 262.03,253.59 L 260.83,254.61 L 260.32,255.62 L 259.81,257.15 L 259.81,258.18 L 259.81,258.18 L 259.81,259.2 L 259.81,259.68 L 259.81,260.21 L 259.81,261.23 L 260.32,262.24 L 260.32,263.28 L 260.32,263.79 L 260.32,264.3 L 260.32,265.32 L 260.32,265.79 L 260.32,266.84 L 260.32,267.34 L 260.32,267.85 L 260.83,269.91 L 260.83,270.92 L 260.83,271.94 L 260.32,272.44 L 260.32,273.46 L 260.32,274.48 L 260.32,275.01 L 260.32,275.51 L 260.83,276.53 L 260.83,278.05 L 260.83,279.07 L 260.83,280.08 L 260.83,281.63 L 261.34,283.12 L 261.34,283.12" fill="none" stroke="#3794ff" stroke-width="2"></path></svg>