<svg id="svg" xmlns="http://www.w3.org/2000/svg" viewBox="14.350000381469727 111.87000274658203 336.6000061035156 340.5500183105469" height="340.5500183105469"><path d="M 67.6,173.32 L 68.7,173.86 L 68.7,175.35 L 68.7,180.48 L 68.7,185.05 L 68.7,190.65 L 68.7,196.77 L 68.7,202.38 L 68.7,207.99 L 68.7,211.54 L 68.7,218.69 L 68.19,224.81 L 68.19,231.91 L 67.68,234.47 L 67.68,242.65 L 67.68,244.17 L 67.68,252.85 L 67.68,255.89 L 67.68,265.08 L 67.68,270.15 L 67.68,273.2 L 67.68,276.8 L 67.68,279.84 L 67.16,288.02 L 67.16,292.58 L 66.65,296.64 L 66.65,300.24 L 66.65,303.29 L 66.65,308.36 L 66.65,312.96 L 66.65,316.54 L 66.65,318.06 L 66.65,319.07 L 66.65,327.75 L 67.16,331.31 L 67.16,334.35 L 67.16,336.4 L 67.68,341 L 67.68,343.53 L 67.68,347.62 L 67.68,348.63 L 67.68,352.72 L 67.68,356.8 L 67.68,361.4 L 67.68,363.91 L 67.68,365.96 L 67.68,371.06 L 68.19,374.62 L 68.19,379.74 L 68.7,381.74 L 68.7,385.35 L 68.7,389.41 L 68.7,391.47 L 68.19,391.95 L 67.68,391.47" fill="none" stroke="#3794ff" stroke-width="2"></path><path d="M 61.48,180.48 L 61.05,179.46 L 60.54,179.46 L 60.54,179.97 L 59.51,181.47 L 59.51,183.02 L 59,183.52 L 59,184.03 L 59,184.03 L 60.54,181.98 L 62.08,178.42 L 64.6,174.37 L 65.63,172.82 L 66.14,172.31 L 66.14,172.31 L 67.16,172.82 L 68.7,175.35 L 71.22,178.42 L 73.79,182.51 L 76.35,187.08 L 78.36,190.65 L 78.36,191.19 L 78.36,191.19" fill="none" stroke="#3794ff" stroke-width="2"></path><path d="M 57.38,381.74 L 60.03,381.74 L 60.54,381.24 L 63.57,380.73 L 68.19,380.22 L 70.71,380.22 L 73.79,380.22 L 76.35,380.22 L 81.43,379.74 L 86,379.74 L 91.13,379.74 L 96.73,379.74 L 100.79,379.74 L 107.45,379.74 L 115.57,379.74 L 122.24,379.74 L 127.83,379.74 L 135.48,379.74 L 136.51,379.74 L 143.64,379.24 L 147.7,379.24 L 153.3,378.7 L 156.37,378.7 L 161.46,378.19 L 166.07,377.69 L 171.16,377.18 L 175.26,376.67 L 181.37,376.67 L 185.94,376.67 L 191.03,376.16 L 196.15,376.16 L 200.72,376.16 L 206.32,375.63 L 211.45,375.63 L 217.04,375.63 L 220.12,375.63 L 224.69,375.63 L 229.78,375.63 L 236.4,375.63 L 240.5,375.63 L 247.13,375.63 L 251.22,375.63 L 254.77,376.16 L 258.36,376.16 L 261.91,375.63 L 264.47,375.12 L 266.99,375.12 L 272.63,374.13 L 275.66,373.63 L 282.29,373.1 L 287.42,372.58 L 290.45,372.58 L 293.01,372.58 L 295.58,373.1 L 297.07,373.1 L 297.58,373.1 L 298.1,373.1 L 298.1,373.1" fill="none" stroke="#3794ff" stroke-width="2"></path><path d="M 298.53,367.51 L 296.6,367.51 L 296.09,367.51 L 296.6,367.51 L 299.64,367.51 L 301.69,367.51 L 306.77,368.53 L 310.36,371.06 L 310.36,372.58 L 308.82,375.12 L 303.73,377.69 L 298.1,379.74 L 294.55,380.73 L 293.52,381.24 L 294.04,381.24" fill="none" stroke="#3794ff" stroke-width="2"></path><path d="M 338.31,398.06 L 338.39,397.08 L 338.39,397.08 L 338.39,396.54 L 338.39,396.54 L 338.39,396.03 L 338.39,396.03 L 336.85,395.53 L 335.82,395.53 L 333.3,395.53 L 331.25,396.03 L 328.18,398.06 L 325.14,401.64 L 324.63,403.16 L 324.63,403.67 L 327.66,404.68 L 328.68,404.68 L 332.28,404.68 L 333.82,404.68 L 334.8,404.68 L 335.31,404.68 L 335.31,404.68 L 334.8,404.68 L 332.79,404.68 L 331.25,405.73 L 328.18,407.75 L 326.68,408.77 L 325.14,410.8 L 324.63,412.86 L 324.63,415.9 L 325.14,417.45 L 329.2,418.97 L 332.79,418.97 L 337.87,415.9 L 340.95,413.84" fill="none" stroke="#3794ff" stroke-width="2"></path><path d="M 44.14,149.9 L 45.24,149.91 L 45.24,149.91 L 45.76,149.91 L 45.76,149.91 L 45.76,150.92 L 45.76,151.43 L 45.24,153.46 L 44.22,155.49 L 43.7,157.03 L 42.68,158.53 L 41.65,159.57 L 40.63,160.08 L 39.65,160.08 L 38.11,160.08 L 37.08,159.07 L 36.06,158.02 L 35.03,157.03 L 34.52,156.53 L 33.49,156.02 L 32.98,155.49 L 32,155.49 L 30.97,155.49 L 29.95,155.49 L 28.92,156.53 L 27.9,157.54 L 27.39,159.57 L 26.87,161.09 L 26.87,164.14 L 27.9,166.19 L 29.95,167.74 L 32,168.25 L 34.52,167.74 L 36.06,165.18 L 36.57,161.6 L 36.57,158.53 L 36.06,157.03 L 36.06,156.53" fill="none" stroke="#3794ff" stroke-width="2"></path><path d="M 69.13,378.19 L 69.21,378.7 L 69.21,378.19 L 69.73,377.18 L 69.73,376.67 L 70.2,373.1 L 70.71,370.56 L 71.22,369.01 L 71.74,365.46 L 72.25,363.4 L 72.25,361.4 L 72.76,359.34 L 73.27,356.8 L 73.79,355.25 L 74.3,353.23 L 74.81,350.69 L 75.32,349.14 L 76.35,347.11 L 76.86,344.58 L 77.37,343.03 L 77.37,342.01 L 77.84,339.47 L 78.36,337.95 L 78.87,333.87 L 79.38,332.85 L 79.9,330.29 L 80.41,329.27 L 80.41,328.26 L 80.92,326.23 L 81.43,324.68 L 81.43,323.13 L 81.94,322.15 L 82.46,320.09 L 82.97,319.07 L 83.48,318.06 L 83.48,316.54 L 84,316.03 L 84.51,313.97 L 85.02,312.96 L 85.02,311.94 L 85.49,310.42 L 86,309.4 L 86.52,307.86 L 87.03,306.33 L 87.03,305.32 L 87.54,304.3 L 88.06,302.25 L 88.06,301.74 L 88.57,300.73 L 89.08,298.7 L 89.08,297.18 L 89.6,295.63 L 90.1,294.64 L 90.1,293.6 L 90.62,292.08 L 91.13,291.06 L 91.13,289.51 L 91.64,288.02 L 92.16,286.97 L 92.16,285.45 L 92.16,284.41 L 92.63,283.4 L 92.63,282.92 L 93.14,281.37 L 93.14,280.35 L 93.65,279.34 L 93.65,278.81 L 93.65,277.79 L 94.17,276.8 L 94.17,275.76 L 94.68,275.25 L 94.68,274.75 L 95.19,273.73 L 95.19,272.69 L 95.7,272.18 L 95.7,271.19 L 96.21,270.15 L 96.21,269.65 L 96.73,268.63 L 96.73,267.61 L 97.24,267.08 L 97.24,266.09 L 97.75,265.08 L 98.27,264.04 L 98.27,262.51 L 98.78,261.47 L 99.29,259.98 L 99.8,259.47 L 99.8,258.43 L 100.27,257.42 L 100.27,256.9 L 100.27,256.4 L 100.27,256.4 L 100.79,255.89 L 100.79,255.36 L 100.79,254.85 L 101.3,254.37 L 101.3,253.86 L 101.3,253.35 L 101.3,252.85 L 101.81,252.31 L 101.81,251.81 L 102.33,251.3 L 102.33,250.28 L 102.33,249.78 L 102.84,249.24 L 102.84,248.76 L 103.35,247.75 L 103.35,247.24 L 103.35,246.71 L 103.86,246.2 L 103.86,245.69 L 104.38,245.69 L 104.38,245.18 L 104.38,244.68 L 104.38,244.68 L 104.38,244.17 L 104.89,243.63 L 104.89,243.15 L 104.89,243.15 L 104.89,242.65 L 104.89,242.14 L 104.89,242.14 L 105.4,241.63 L 105.4,241.12 L 105.4,241.12 L 105.4,240.59 L 105.4,240.59 L 105.4,240.59 L 105.4,240.59" fill="none" stroke="#3794ff" stroke-width="2"></path><path d="M 106.86,240.59 L 107.92,240.08 L 107.92,240.08 L 107.92,240.08 L 108.43,240.59 L 108.95,241.63 L 109.46,242.14 L 109.97,243.15 L 109.97,243.15 L 110.49,244.17 L 111,244.68 L 111,245.18 L 111.51,245.69 L 111.51,245.69 L 111.51,245.18 L 112.02,244.17 L 112.54,243.15 L 113.05,241.63 L 113.56,240.08 L 114.08,239.58 L 114.59,238.56 L 115.1,238.05 L 115.57,237.52 L 115.57,237.04 L 116.08,237.04 L 116.08,237.52 L 116.6,238.05 L 116.6,239.58 L 117.11,241.12 L 117.11,242.14 L 117.62,243.63 L 117.62,244.17 L 117.62,244.68 L 117.62,245.18 L 117.62,245.18 L 118.13,244.68 L 118.65,243.63 L 119.16,242.65 L 119.16,242.14 L 119.67,241.63 L 119.67,241.12 L 120.19,240.59 L 120.7,240.59 L 120.7,241.63 L 121.21,243.15 L 121.72,244.17 L 122.24,245.18 L 122.24,245.69 L 122.75,245.69 L 122.75,245.69 L 123.73,244.68 L 124.24,242.65 L 124.24,242.14 L 124.76,241.12 L 125.27,241.12 L 125.78,241.12 L 126.3,241.63 L 126.3,241.63" fill="none" stroke="#3794ff" stroke-width="2"></path><path d="M 126.22,242.14 L 126.81,242.14 L 126.81,242.14 L 126.81,241.63 L 126.81,241.63 L 126.81,240.59 L 126.81,240.08 L 127.32,239.58 L 127.32,238.56 L 127.83,238.05 L 127.83,237.52 L 128.35,236.53 L 128.86,235.52 L 128.86,234.47 L 129.37,233.46 L 130.39,232.44 L 130.39,231.43 L 130.87,230.42 L 131.38,229.4 L 131.89,228.87 L 132.92,227.35 L 133.43,226.84 L 133.43,225.82 L 133.95,225.32 L 134.45,224.3 L 134.97,223.26 L 134.97,222.75 L 135.48,221.74 L 135.99,221.23 L 136.51,220.75 L 136.51,220.21 L 137.02,219.71 L 137.53,219.2 L 138.05,217.68 L 138.51,217.15 L 139.03,216.64 L 139.54,215.62 L 140.05,215.14 L 140.57,214.1 L 140.57,213.59 L 141.08,212.58 L 141.59,212.58 L 142.11,211.54 L 142.11,211.03 L 142.62,210.52 L 142.62,210.01 L 143.13,209.51 L 143.64,209.03 L 144.15,208.49 L 144.67,207.99 L 145.18,207.48 L 145.18,207.48 L 145.65,206.97 L 146.16,206.46 L 146.68,205.95 L 146.68,205.42 L 147.7,204.92 L 147.7,204.4 L 148.21,204.4 L 148.72,203.9 L 148.72,203.42 L 149.24,202.91 L 149.75,202.38 L 149.75,202.38 L 150.26,201.87 L 150.78,201.36 L 150.78,200.86 L 151.29,200.86 L 151.8,200.35 L 152.31,199.84 L 152.31,199.84 L 152.83,199.31 L 152.83,199.31 L 153.3,198.8 L 153.3,198.8 L 153.81,198.29 L 154.32,197.81 L 154.84,197.81 L 155.35,197.3 L 155.86,197.3 L 155.86,196.77 L 156.37,196.77 L 157.4,195.76 L 157.91,195.25 L 160.48,193.19 L 161.97,192.2 L 163.51,190.65 L 164.02,190.65 L 164.02,190.15 L 164.53,190.15 L 164.53,189.64 L 165.56,189.64 L 166.07,188.62 L 167.1,188.62 L 167.61,188.12 L 168.13,187.58 L 168.13,187.08 L 169.11,186.57 L 170.13,186.09 L 171.16,185.58 L 171.67,185.05 L 171.67,185.05 L 172.7,184.54 L 173.72,184.54 L 174.23,184.54 L 174.75,184.03 L 175.26,184.03 L 177.27,183.52 L 178.29,183.52 L 178.81,183.52 L 180.86,183.52 L 182.4,183.02 L 184.4,183.02 L 185.43,183.02 L 186.46,183.02 L 186.97,182.51 L 187.99,182.51 L 188.5,182.51 L 190.56,181.98 L 191.03,181.98 L 192.05,181.98 L 192.56,181.98 L 193.59,181.98 L 194.1,181.98 L 194.62,181.98 L 195.13,181.98 L 196.15,181.98 L 196.66,181.98 L 197.18,181.98 L 197.69,181.98 L 198.2,181.98 L 199.19,181.98 L 199.7,181.98 L 200.21,181.98 L 201.23,181.98 L 202.26,181.98 L 202.77,181.98 L 203.29,181.98 L 204.31,181.47 L 204.83,181.47 L 206.32,181.47 L 206.32,181.47 L 211.45,180.48 L 212.99,179.97 L 214.99,179.97 L 217.04,179.46 L 219.1,179.46 L 221.15,179.46 L 223.15,178.93 L 224.18,178.93 L 225.72,178.93 L 225.72,178.93 L 228.28,178.93 L 229.26,178.93 L 230.29,179.46 L 231.83,179.46 L 234.39,179.46 L 238.45,179.46 L 242.04,179.97 L 245.07,180.48 L 246.1,180.96 L 248.15,180.96 L 252.72,183.02 L 254.77,184.03 L 256.82,184.03 L 258.87,184.54 L 259.34,184.54 L 261.4,185.05 L 264.47,185.58 L 266.01,186.57 L 267.5,187.08 L 268.53,187.58 L 270.07,189.13 L 271.6,190.15 L 273.14,191.19 L 274.64,192.2 L 275.66,192.68 L 278.23,194.23 L 280.28,195.25 L 281.31,195.76 L 281.31,195.76 L 281.82,196.26 L 283.31,197.81 L 283.83,198.8 L 284.34,199.31 L 284.34,199.84 L 284.34,199.84 L 284.85,200.35 L 284.85,200.86 L 285.36,201.36 L 285.36,201.87 L 285.88,201.87 L 285.88,201.87 L 285.88,202.38 L 285.88,202.38 L 285.88,202.38 L 285.88,202.38" fill="none" stroke="#3794ff" stroke-width="2"></path><path d="M 287.85,201.36 L 287.93,200.35 L 287.93,199.31 L 287.93,198.29 L 287.93,197.81 L 288.44,196.77 L 288.44,196.77 L 289.42,196.26 L 289.42,196.26 L 289.42,197.3 L 289.42,199.84 L 288.95,202.91 L 288.95,204.92 L 288.44,206.46 L 288.44,206.97 L 288.44,206.97 L 288.44,205.95 L 287.93,205.42" fill="none" stroke="#3794ff" stroke-width="2"></path><path d="M 285.28,202.38 L 285.36,201.36 L 285.36,201.36 L 285.36,200.86 L 285.36,200.86 L 285.36,200.86 L 286.39,200.86 L 289.42,201.36 L 291.47,201.87 L 291.47,202.38" fill="none" stroke="#3794ff" stroke-width="2"></path><path d="M 287.85,200.35 L 287.42,199.31 L 287.42,198.8 L 287.42,198.8 L 287.42,198.8 L 287.93,200.86 L 287.93,203.9 L 287.93,204.4 L 287.93,207.48 L 287.93,207.99 L 287.85,208.49" fill="none" stroke="#3794ff" stroke-width="2"></path><path d="M 285.28,205.42 L 284.34,203.42 L 284.34,203.42 L 284.85,202.91 L 285.88,202.91 L 288.95,202.91 L 291.47,202.91 L 292.5,202.91" fill="none" stroke="#3794ff" stroke-width="2"></path><path d="M 290.37,199.3 L 289.86,198.29 L 289.42,197.81 L 288.95,197.3 L 288.44,197.81 L 287.42,199.84 L 286.39,203.42 L 285.36,206.46 L 285.36,206.97 L 285.36,207.99 L 285.36,207.99" fill="none" stroke="#3794ff" stroke-width="2"></path><path d="M 284.26,202.91 L 283.83,201.87 L 283.83,201.87 L 284.85,201.87 L 287.93,202.38 L 288.44,202.38 L 289.34,202.91" fill="none" stroke="#3794ff" stroke-width="2"></path><path d="M 214.4,181.46 L 213.97,180.48 L 213.97,180.48 L 213.97,180.48 L 213.97,179.97 L 213.97,179.97 L 213.5,179.97 L 212.99,179.97 L 212.99,180.48 L 212.47,180.96 L 212.47,181.98 L 212.99,182.51 L 213.97,183.02 L 214.99,183.02 L 216.53,182.51 L 217.56,180.48 L 218.07,179.46 L 218.07,177.41 L 218.07,176.9 L 217.04,176.4 L 214.48,178.42 L 213.5,179.97 L 212.99,183.02 L 212.99,184.54 L 214.48,185.05 L 215.51,185.05 L 216.53,184.03 L 218.07,181.98 L 218.07,180.96 L 218.58,178.93 L 218.07,178.42 L 217.04,177.92 L 215.51,178.93 L 213.97,181.47 L 213.97,183.02 L 213.97,184.03 L 214.48,184.54 L 215.51,184.54 L 217.56,182.51 L 218.58,179.46 L 218.58,177.92 L 218.07,176.9 L 217.56,176.9 L 214.99,177.92 L 213.97,179.46 L 213.97,181.47 L 213.97,181.98 L 214.99,182.51 L 216.02,182.51 L 217.04,181.98 L 218.07,180.48 L 218.07,179.46 L 218.07,179.46 L 216.53,179.97 L 216.02,180.96 L 214.99,183.02 L 214.99,184.03 L 214.99,184.54 L 216.02,184.54 L 217.04,181.47 L 217.56,180.48 L 217.56,178.93 L 217.04,178.42 L 216.02,178.93 L 215.51,179.97 L 215.51,181.47 L 215.43,181.97" fill="none" stroke="#3794ff" stroke-width="2"></path><path d="M 64,244.17 L 63.06,244.68 L 63.06,244.68 L 63.06,244.68 L 62.55,244.68 L 62.55,244.68 L 62.55,244.68 L 62.55,244.68 L 63.06,244.68 L 64.6,244.17 L 66.65,243.63 L 69.21,243.15 L 71.22,243.15 L 73.27,243.15 L 74.3,243.15 L 74.3,243.15 L 74.3,243.15 L 73.79,243.15 L 72.76,243.63 L 70.71,243.63 L 69.21,243.63 L 67.68,244.17 L 66.65,244.17 L 64.6,244.68 L 63.57,244.68 L 63.57,244.68 L 63.06,244.68 L 63.57,244.68 L 64.6,244.68 L 66.65,244.17 L 69.73,244.17 L 71.22,244.17 L 73.19,244.17" fill="none" stroke="#3794ff" stroke-width="2"></path><path d="M 40.55,233.96 L 41.14,232.96 L 41.65,232.96 L 41.65,232.44 L 41.65,232.44 L 41.65,232.44 L 41.65,232.44 L 41.65,232.96 L 41.14,235.52 L 39.65,237.52 L 39.13,239.07 L 38.62,240.08 L 38.11,240.59 L 36.57,240.59 L 36.06,240.59 L 35.03,240.59 L 34.01,239.58 L 32.98,238.56 L 32,237.52 L 31.49,237.04 L 30.46,236.53 L 29.95,236.53 L 28.41,236.53 L 28.41,236.53 L 26.87,237.04 L 26.36,237.52 L 25.33,239.07 L 24.82,240.08 L 24.35,242.14 L 24.35,244.17 L 24.35,244.68 L 26.36,246.2 L 27.39,246.2 L 29.43,246.2 L 30.46,246.2 L 32,244.68 L 32,242.65 L 32,241.63 L 31.49,239.07 L 30.97,238.05 L 30.97,238.05" fill="none" stroke="#3794ff" stroke-width="2"></path><path d="M 38.03,250.79 L 37.59,251.81 L 37.59,253.35 L 37.08,256.4 L 37.08,257.92 L 37.08,259.47 L 37.08,260.46 L 37.08,260.46 L 37.08,260.46 L 37.08,258.96 L 37.08,257.42 L 37.08,255.89 L 37.08,254.85 L 37.08,253.86 L 37.08,252.31 L 37.08,251.81 L 37.08,250.79 L 37.08,250.28 L 37.08,250.28 L 37.08,250.28 L 37.08,250.28 L 37.59,251.3 L 37.59,252.31 L 38.11,254.37 L 38.11,257.42 L 38.11,259.98 L 38.11,263.02 L 38.11,264.04 L 38.11,265.08 L 38.11,265.08 L 38.11,265.08 L 38.11,265.08 L 38.11,264.04 L 38.11,263.53 L 38.11,263.02 L 38.11,261.47 L 38.11,260.96 L 38.11,258.96 L 38.11,257.42 L 38.11,256.9 L 37.59,254.85 L 37.59,253.35 L 37.59,252.85 L 37.59,252.31 L 37.59,252.31 L 37.59,252.31 L 37.59,252.31 L 37.59,252.31 L 37.59,252.31 L 37.59,252.31 L 37.59,252.31 L 37.59,252.31 L 38.11,252.31 L 39.13,252.31 L 40.63,251.81 L 42.17,251.81 L 43.19,251.3 L 44.22,251.3 L 45.24,251.3 L 45.76,251.3 L 46.27,251.3 L 46.27,251.3 L 46.27,251.3" fill="none" stroke="#3794ff" stroke-width="2"></path><path d="M 39.57,258.42 L 39.65,257.92 L 40.12,257.92 L 40.63,257.92 L 43.19,257.92 L 43.7,257.92 L 45.76,257.92 L 46.27,257.92 L 46.78,257.92 L 46.78,257.92 L 46.78,257.92" fill="none" stroke="#3794ff" stroke-width="2"></path><path d="M 185.86,123.39 L 185.94,121.87 L 185.94,121.87 L 185.94,121.87 L 185.94,122.88 L 185.94,124.91 L 186.46,125.92 L 186.97,132.57 L 186.97,142.75 L 186.46,148.86 L 185.94,150.92 L 185.43,152.42 L 185.35,150.41" fill="none" stroke="#3794ff" stroke-width="2"></path><path d="M 185.35,129.53 L 185.43,128.49 L 185.43,127.98 L 185.43,126.97 L 185.94,125.42 L 186.97,124.4 L 189.53,122.88 L 191.54,122.37 L 193.59,122.37 L 194.1,123.92 L 194.62,126.46 L 194.62,127.98 L 192.56,132.04 L 190.56,134.61 L 189.53,135.08 L 187.99,135.62 L 187.48,135.62 L 187.48,135.62 L 186.97,135.08 L 186.97,134.61 L 187.99,134.61 L 189.53,134.61 L 192.05,135.08 L 194.62,136.12 L 195.13,136.63 L 197.18,139.2 L 198.67,144.3 L 198.67,147.34 L 198.67,148.36 L 198.67,149.91 L 198.67,149.91 L 198.67,149.91 L 198.59,149.37" fill="none" stroke="#3794ff" stroke-width="2"></path><path d="M 208.29,148.86 L 207.86,149.91 L 207.86,149.91 L 207.86,152.42 L 207.86,154.98 L 207.86,155.49 L 208.37,157.03 L 208.37,157.03 L 208.37,156.53 L 208.89,153.96 L 209.39,152.42 L 209.91,150.92 L 209.91,149.91 L 210.93,148.86 L 210.93,148.36 L 211.45,148.36 L 211.96,148.36 L 212.47,149.91 L 212.47,150.41 L 212.99,152.95 L 212.99,154.47 L 212.99,155.49 L 212.99,155.49 L 213.5,155.49 L 213.97,154.47 L 213.97,153.96 L 214.99,152.42 L 215.51,151.93 L 216.53,150.41 L 217.04,149.91 L 217.56,149.91 L 218.07,149.91 L 218.58,151.93 L 218.58,153.46 L 219.1,154.98 L 219.1,156.53 L 219.1,157.03 L 219.1,157.54 L 219.1,157.54 L 219.02,157.54" fill="none" stroke="#3794ff" stroke-width="2"></path><path d="M 107.38,254.85 L 107.92,253.35 L 107.92,253.35 L 107.92,254.37 L 107.92,255.89 L 107.92,257.42 L 107.92,258.43 L 107.92,259.98 L 108.43,260.96 L 108.43,262.01 L 108.35,262.51" fill="none" stroke="#3794ff" stroke-width="2"></path><path d="M 108.87,270.15 L 109.46,271.19 L 109.46,271.19 L 109.46,272.18 L 109.46,272.69 L 109.97,273.2 L 109.97,276.8 L 109.97,278.3 L 109.97,279.34 L 109.97,280.86" fill="none" stroke="#3794ff" stroke-width="2"></path><path d="M 110.41,283.9 L 109.97,284.92 L 109.46,285.96 L 108.95,286.97 L 108.95,288.02 L 108.43,289.51 L 108.43,290.02 L 108.43,291.06 L 108.43,292.58 L 108.43,294.13 L 108.43,295.12 L 108.43,296.64 L 108.43,298.19 L 108.43,298.7 L 108.43,300.24 L 108.43,301.74 L 108.43,303.29 L 108.43,304.3 L 108.43,305.32 L 108.43,306.33 L 108.43,307.35 L 108.43,307.86" fill="none" stroke="#3794ff" stroke-width="2"></path><path d="M 108.87,313.97 L 108.95,315.01 L 108.95,316.54 L 108.95,317.58 L 108.95,318.56 L 108.43,319.58 L 108.43,320.62 L 108.43,321.64 L 108.43,322.65 L 108.43,323.13 L 108.43,324.17 L 108.95,325.19 L 108.95,326.23 L 108.95,327.25 L 108.95,328.26 L 108.95,329.27 L 108.95,330.29 L 108.95,331.31 L 108.95,331.81 L 108.95,333.36 L 108.95,334.35 L 108.95,335.39 L 108.95,336.4 L 108.95,337.95 L 108.95,338.97 L 108.95,339.95 L 108.95,341 L 108.95,342.52 L 108.43,343.53 L 108.43,345.08 L 108.43,346.07 L 108.43,347.62 L 108.43,349.14 L 108.43,349.67 L 108.43,350.69 L 108.43,351.68 L 108.43,352.72 L 108.43,353.74 L 108.43,354.75 L 108.43,355.79 L 108.43,356.8 L 108.43,357.79 L 108.43,358.83 L 108.43,359.85 L 108.43,360.86 L 108.43,361.4 L 108.43,362.41 L 108.43,362.89 L 108.43,363.91 L 108.43,364.44 L 108.43,365.46 L 108.43,365.46" fill="none" stroke="#3794ff" stroke-width="2"></path><path d="M 108.87,368.02 L 108.43,369.52 L 108.43,371.06 L 107.92,372.08 L 107.92,373.1 L 107.92,373.63 L 107.92,374.62 L 107.92,375.12 L 107.92,375.63" fill="none" stroke="#3794ff" stroke-width="2"></path><path d="M 109.38,379.74 L 108.43,382.28 L 107.92,383.29 L 107.92,384.82 L 107.92,385.83" fill="none" stroke="#3794ff" stroke-width="2"></path><path d="M 71.65,410.8 L 71.74,411.84 L 71.74,411.84 L 71.74,412.35 L 71.74,412.86 L 71.74,412.86 L 71.74,413.36 L 71.74,413.84 L 71.74,414.89 L 71.74,415.9 L 72.25,416.41 L 72.76,416.91 L 73.79,417.96 L 74.81,417.96 L 76.35,417.96 L 77.37,417.45 L 77.84,417.45 L 79.38,416.41 L 79.9,416.41 L 81.43,415.39 L 81.94,415.39 L 82.97,414.38 L 84,414.38 L 84.51,413.84 L 85.02,413.84 L 85.49,413.84 L 86,413.84 L 86.52,414.38 L 87.03,414.89 L 87.54,415.39 L 88.06,415.9 L 88.06,416.41 L 88.57,417.45 L 88.57,417.96 L 88.57,418.97 L 88.57,419.48 L 88.57,419.96 L 88.57,420.49 L 88.57,420.49 L 88.57,420.49 L 88.57,420.49 L 89.08,418.97 L 89.08,418.46 L 89.6,417.45 L 89.6,416.91 L 90.1,415.9 L 90.62,415.39 L 91.13,414.38 L 91.64,414.38 L 91.64,413.84 L 92.16,413.84 L 92.63,413.36 L 93.14,413.36 L 93.65,413.36 L 94.17,413.36 L 94.68,413.84 L 95.7,413.84 L 96.21,414.38 L 96.73,414.89 L 97.75,414.89 L 97.75,414.89 L 98.27,415.39 L 99.29,415.9 L 99.8,415.9 L 99.8,415.9 L 100.79,416.41 L 100.79,416.41 L 101.3,416.41 L 102.33,416.41 L 102.84,416.91 L 102.84,416.91 L 103.35,416.91 L 103.86,416.41 L 103.86,416.41 L 104.38,415.9 L 104.89,415.9 L 104.89,415.39 L 104.89,415.39 L 104.89,414.89 L 104.89,414.38 L 104.89,412.86 L 104.89,412.35 L 104.89,411.84 L 104.38,411.33 L 104.38,411.33" fill="none" stroke="#3794ff" stroke-width="2"></path><path d="M 88.49,430.18 L 88.57,429.17 L 88.06,428.64 L 87.54,428.64 L 87.54,428.64 L 87.54,428.64 L 89.08,430.69 L 91.13,433.74 L 92.63,435.79 L 94.17,439.35 L 94.68,440.36 L 95.19,440.9 L 95.19,440.9" fill="none" stroke="#3794ff" stroke-width="2"></path><path d="M 93.57,430.69 L 94.17,429.68 L 94.68,429.68 L 94.68,429.68 L 94.17,431.68 L 93.14,433.74 L 92.16,436.78 L 90.62,439.85 L 90.1,441.4 L 90.1,441.91 L 89.6,441.91 L 89.6,441.4 L 89.6,440.9" fill="none" stroke="#3794ff" stroke-width="2"></path><path d="M 89,434.75 L 88.57,433.74 L 88.06,433.74 L 88.06,433.74 L 88.06,433.74 L 88.06,435.29 L 88.06,437.82 L 88.06,439.35 L 88.06,440.9 L 88.57,441.91 L 88.57,442.42 L 88.57,442.42 L 88.49,442.42" fill="none" stroke="#3794ff" stroke-width="2"></path><path d="M 86.95,436.3 L 85.02,436.3 L 85.02,436.3 L 85.49,435.79 L 86.52,435.79 L 88.57,434.75 L 91.64,434.24 L 94.17,433.74 L 96.73,433.23 L 97.24,433.23 L 97.16,433.23" fill="none" stroke="#3794ff" stroke-width="2"></path></svg>