<svg id="svg" xmlns="http://www.w3.org/2000/svg" viewBox="12.729999542236328 136.55999755859375 347.4499816894531 191.73001098632812" height="191.73001098632812"><path d="M 178.43,260.58" fill="none" stroke="#3794ff" stroke-width="2"></path><path d="M 134.02,200.59 L 133.85,198.56 L 133.85,197.03 L 134.37,197.03 L 134.37,197.03 L 134.37,199.06 L 134.37,205.68 L 134.88,210.28 L 136.89,231.67 L 136.89,244.41 L 136.89,249 L 136.38,250.02 L 135.91,244.41" fill="none" stroke="#3794ff" stroke-width="2"></path><path d="M 135.05,194.97 L 133.85,195.49 L 133.35,196.53 L 133.35,196.53 L 133.85,197.03 L 136.89,196.53 L 142.53,196.02 L 147.1,195.49 L 152.7,194.98 L 162.4,194.47 L 171.07,193.46 L 177.7,192.95 L 188.93,193.46 L 194.01,193.46 L 201.66,193.46 L 207.26,193.46 L 214.91,192.41 L 222.56,191.91 L 225.12,192.41 L 228.15,192.41 L 231.23,192.41 L 234.31,192.41 L 235.29,191.91 L 235.8,191.91 L 235.8,191.91 L 235.8,191.91 L 236.31,191.91 L 236.31,191.91 L 236.31,191.43 L 236.31,191.43 L 236.48,191.43" fill="none" stroke="#3794ff" stroke-width="2"></path><path d="M 140.13,251.03 L 138.94,251.56 L 138.94,251.56 L 138.43,251.56 L 138.43,251.56 L 137.92,251.56 L 137.92,251.56 L 138.43,251.56 L 139.45,251.56 L 143.04,251.56 L 146.08,251.56 L 155.26,251.56 L 161.88,251.56 L 172.61,251.03 L 180.26,251.03 L 187.9,251.03 L 191.96,251.03 L 195.04,251.03 L 204.23,251.56 L 209.31,252.07 L 212.86,252.07 L 214.91,252.07 L 223.58,252.07 L 228.15,252.07 L 233.28,252.07 L 237.34,252.07 L 240.41,251.56 L 241.95,251.03 L 243.96,250.52 L 245.5,250.02 L 247.04,249.51 L 247.04,249.51 L 247.04,249.51 L 246.01,249" fill="none" stroke="#3794ff" stroke-width="2"></path><path d="M 239.56,193.46 L 239.39,191.43 L 239.39,189.9 L 239.39,189.37 L 239.39,188.86 L 239.9,188.36 L 240.41,188.86 L 240.93,190.41 L 241.95,194.47 L 242.94,197.52 L 243.45,201.62 L 244.47,208.25 L 244.98,215.86 L 244.98,222.51 L 244.98,225.58 L 244.98,235.25 L 244.98,239.31 L 244.98,243.39 L 244.98,245.96 L 244.98,252.58 L 244.98,256.13 L 244.98,256.63 L 244.47,256.13" fill="none" stroke="#3794ff" stroke-width="2"></path><path d="M 134.02,190.92 L 134.37,188.86 L 134.88,188.36 L 135.39,187.85 L 137.4,186.83 L 139.96,184.3 L 147.61,178.18 L 151.2,175.11 L 155.26,172.57 L 163.94,165.92 L 168.51,162.88 L 174.62,159.3 L 176.16,158.28 L 177.7,157.78 L 176.67,157.78 L 175.64,158.28 L 174.62,158.28 L 174.14,158.8 L 174.14,158.8 L 174.14,158.8 L 174.14,158.8 L 174.62,158.8 L 175.64,158.8 L 178.2,158.28 L 182.26,157.78 L 187.9,157.25 L 193.5,157.25 L 201.66,157.25 L 212.34,157.25 L 219.01,156.77 L 226.65,156.26 L 236.31,156.26 L 240.93,156.26 L 245.5,157.25 L 249.6,158.28 L 255.71,158.28 L 258.74,157.78 L 263.87,156.77 L 265.88,156.26 L 267.42,156.26 L 269.47,155.75 L 271.52,155.24 L 274.55,154.2 L 275.07,153.69 L 276.09,153.69 L 276.6,153.69 L 277.12,153.69 L 277.63,153.69 L 277.63,154.2 L 277.63,154.74 L 274.04,157.78 L 271.01,161.87 L 268.44,165.42 L 263.87,172.07 L 261.82,176.63 L 257.25,183.76 L 254.17,188.36 L 252.64,189.9 L 249.6,190.41 L 248.06,190.41 L 248.06,190.41 L 248.06,189.37" fill="none" stroke="#3794ff" stroke-width="2"></path><path d="M 271.17,160.35 L 272.03,159.3 L 272.55,158.28 L 272.55,158.28 L 272.55,158.28 L 273.01,159.81 L 273.01,164.4 L 273.01,171.03 L 273.01,182.24 L 272.55,190.41 L 272.55,201.09 L 273.01,208.25 L 273.53,212.31 L 274.04,216.9 L 274.55,222.51 L 273.53,226.06 L 273.01,227.08 L 273.01,227.08 L 273.01,227.08 L 273.01,226.57 L 273.01,226.57 L 273.01,226.06 L 273.53,226.06 L 273.53,225.58 L 273.53,225.58 L 273.53,225.58 L 273.53,226.06 L 273.53,226.57 L 272.55,227.58 L 271.01,229.64 L 264.9,235.25 L 254.68,244.41 L 248.58,249 L 246.52,250.52 L 246.52,250.52" fill="none" stroke="#3794ff" stroke-width="2"></path><path d="M 96.81,212.3 L 94.59,211.8 L 91.51,211.8 L 87.97,212.82 L 86.94,212.82 L 70.11,214.84 L 57.89,215.35 L 52.81,215.35 L 42.08,215.35 L 31.87,215.86 L 29.86,216.39 L 29.86,216.39 L 30.03,216.9" fill="none" stroke="#3794ff" stroke-width="2"></path><path d="M 35.63,207.74 L 34.94,206.7 L 34.94,206.7 L 33.92,206.7 L 33.41,207.21 L 31.87,207.74 L 31.36,208.25 L 28.83,210.78 L 25.25,213.86 L 23.71,215.35 L 22.73,216.39 L 23.19,219.47 L 25.25,220.96 L 26.27,221.47 L 34.94,224.54 L 42.08,226.06 L 43.62,226.06 L 45.16,226.57" fill="none" stroke="#3794ff" stroke-width="2"></path><path d="M 58.06,168.49 L 57.89,167.47 L 57.89,167.47 L 57.89,170.01 L 57.89,175.11 L 57.38,181.74 L 56.87,183.76" fill="none" stroke="#3794ff" stroke-width="2"></path><path d="M 56.52,164.91 L 55.33,164.91 L 54.81,164.4 L 54.81,163.89 L 56.35,163.41 L 61.95,161.87 L 67.08,160.35 L 71.14,160.35 L 72.67,160.35 L 73.87,160.35" fill="none" stroke="#3794ff" stroke-width="2"></path><path d="M 59.08,173.08 L 55.33,173.08 L 55.84,173.08 L 62.97,171.03 L 68.1,170.01 L 70.62,170.01 L 73.35,169.5" fill="none" stroke="#3794ff" stroke-width="2"></path><path d="M 273.7,178.18 L 272.55,177.65 L 272.55,177.65 L 272.55,177.14 L 275.07,177.14 L 277.63,176.63 L 280.66,176.13 L 284.25,175.62 L 286.3,175.62" fill="none" stroke="#3794ff" stroke-width="2"></path><path d="M 289.51,170.51 L 289.34,170.01 L 290.36,169.5 L 293.44,169.5 L 295.45,169.5 L 298.01,169.5 L 300.57,171.03 L 300.57,173.08 L 299.55,175.11 L 298.52,176.63 L 294.97,178.69 L 292.92,180.19 L 290.36,181.23 L 289.85,181.74" fill="none" stroke="#3794ff" stroke-width="2"></path><path d="M 269.64,198.55 L 268.44,197.52 L 267.42,197.03 L 267.42,197.03 L 267.42,197.03 L 273.01,196.02 L 281.69,194.47 L 287.8,193.46 L 292.92,192.95 L 295.45,192.95 L 295.96,192.95 L 296.47,192.95" fill="none" stroke="#3794ff" stroke-width="2"></path><path d="M 297.66,189.9 L 298.52,189.37 L 299.03,189.37 L 302.62,189.37 L 305.66,189.37 L 309.76,189.9 L 310.74,190.92 L 310.74,191.91 L 307.71,194.47 L 302.11,197.03 L 298.52,198.56 L 298.01,199.06 L 298.01,199.57 L 298.69,199.57" fill="none" stroke="#3794ff" stroke-width="2"></path><path d="M 271.17,215.86 L 273.01,215.86 L 282.71,214.37 L 290.36,212.82 L 295.96,212.31 L 300.06,211.8 L 300.06,212.31" fill="none" stroke="#3794ff" stroke-width="2"></path><path d="M 305.83,210.28 L 304.63,209.24 L 304.63,208.25 L 307.71,208.25 L 309.25,208.25 L 312.28,208.25 L 313.82,209.74 L 313.82,211.29 L 312.28,213.35 L 309.25,215.86 L 306.68,217.41 L 303.09,219.47 L 302.11,219.97 L 302.28,219.97" fill="none" stroke="#3794ff" stroke-width="2"></path><path d="M 256.91,232.68 L 255.2,232.69 L 255.2,232.69 L 258.23,232.17 L 261.31,231.67 L 271.01,229.64 L 275.58,228.63 L 279.68,228.12 L 280.66,227.58 L 281.18,227.58 L 281.34,227.58" fill="none" stroke="#3794ff" stroke-width="2"></path><path d="M 280.32,224.03 L 280.66,222 L 282.71,221.47 L 285.79,221.47 L 288.82,221.47 L 291.39,223.02 L 291.39,226.57 L 289.85,228.12 L 283.74,232.69 L 280.15,234.74 L 279.17,235.25 L 279.17,235.25" fill="none" stroke="#3794ff" stroke-width="2"></path><path d="M 247.21,206.7 L 248.06,207.74 L 249.09,207.74 L 251.61,208.25 L 254.68,208.25 L 260.28,207.21 L 265.37,206.19 L 265.88,206.19" fill="none" stroke="#3794ff" stroke-width="2"></path><path d="M 263.53,200.59 L 264.9,199.57 L 266.9,199.57 L 272.55,200.59 L 273.53,200.59 L 277.63,203.12 L 277.63,205.68 L 274.55,207.74 L 271.01,210.28 L 266.39,212.31 L 264.38,213.35 L 264.38,213.35 L 265.07,212.81" fill="none" stroke="#3794ff" stroke-width="2"></path><path d="M 260.45,193.46 L 258.23,193.46 L 257.72,193.46 L 259.26,192.95 L 260.79,192.41 L 268.44,190.41 L 272.55,189.37 L 274.04,189.37 L 277.63,188.86 L 279.34,188.35" fill="none" stroke="#3794ff" stroke-width="2"></path><path d="M 275.74,183.76 L 276.6,183.76 L 278.14,182.75 L 281.18,182.75 L 286.82,182.75 L 290.36,184.8 L 290.88,186.3 L 287.8,189.37 L 282.71,192.41 L 279.17,193.46 L 277.63,194.47" fill="none" stroke="#3794ff" stroke-width="2"></path><path d="M 229.35,283.63 L 228.15,283.12 L 227.64,283.12 L 227.64,283.12 L 228.67,283.12 L 231.23,283.64 L 234.31,285.69 L 236.31,287.24 L 244.98,295.36 L 249.09,299.47 L 255.2,304.57 L 260.28,310.68 L 262.33,314.24 L 262.85,315.76 L 263.36,316.29 L 263.36,316.29 L 261.82,315.25" fill="none" stroke="#3794ff" stroke-width="2"></path><path d="M 255.88,285.69 L 254.68,285.69 L 254.17,285.69 L 252.64,286.2 L 251.1,288.73 L 248.06,293.36 L 244.47,299.47 L 240.41,306.06 L 239.39,308.12 L 234.31,316.8 L 233.79,317.28 L 233.79,317.28 L 233.79,316.8 L 234.31,316.29 L 234.78,315.76" fill="none" stroke="#3794ff" stroke-width="2"></path><path d="M 238.54,303.53 L 238.88,302.52 L 239.39,302.01 L 239.39,302.01 L 239.39,302.01 L 239.9,302.01 L 239.9,302.01 L 239.9,302.01 L 239.39,302.01 L 238.37,302.01 L 235.8,302.01 L 234.78,302.52 L 231.74,305.08 L 228.67,308.63 L 227.64,312.18 L 227.17,314.24 L 229.18,318.29 L 232.77,318.29" fill="none" stroke="#3794ff" stroke-width="2"></path><path d="M 252.29,304.03 L 250.58,304.03 L 250.07,304.03 L 250.07,304.03 L 250.58,303.53 L 253.14,302.01 L 255.2,300.97 L 257.72,300.97 L 260.79,300.97 L 262.33,300.97 L 264.38,304.03 L 264.9,306.57 L 263.87,311.17 L 261.82,314.74 L 259.26,315.76 L 259.43,315.76" fill="none" stroke="#3794ff" stroke-width="2"></path><path d="M 245.66,261.23 L 246.52,261.23 L 246.52,260.72 L 246.52,260.72 L 247.04,260.72 L 247.04,261.23 L 247.04,262.75 L 247.04,263.79" fill="none" stroke="#3794ff" stroke-width="2"></path><path d="M 245.66,273.96 L 246.01,275.01 L 246.01,275.51 L 246.01,276.03 L 246.01,277.01 L 246.01,277.01" fill="none" stroke="#3794ff" stroke-width="2"></path><path d="M 247.21,281.12 L 247.04,282.62 L 247.04,283.12 L 247.04,284.67 L 246.52,285.19" fill="none" stroke="#3794ff" stroke-width="2"></path><path d="M 246.69,292.31 L 246.52,294.34 L 246.52,294.34" fill="none" stroke="#3794ff" stroke-width="2"></path><path d="M 350.18,146.56 L 350.01,147.58 L 350.01,148.09 L 350.01,151.69 L 350.01,153.69 L 350.01,156.26 L 349.5,156.77 L 348.98,158.28 L 348,159.3 L 346.97,160.35 L 346.97,160.35 L 344.92,160.35 L 343.39,160.35 L 341.33,159.81 L 340.35,159.3 L 339.33,158.8 L 337.79,157.78 L 336.76,157.25 L 335.22,156.26 L 333.68,156.26 L 331.68,155.75 L 330.65,155.75 L 328.6,156.26 L 328.09,156.77 L 326.55,158.28 L 326.04,158.8 L 325.57,159.81 L 325.57,161.36 L 325.57,162.88 L 325.57,164.4 L 326.04,164.91 L 327.06,165.92 L 329.11,167.47 L 330.14,167.98 L 331.68,168.49 L 332.7,168.97 L 334.2,168.97 L 335.22,168.97 L 336.25,168.97 L 337.27,168.97 L 338.3,168.49 L 339.33,166.97 L 340.82,165.42 L 341.33,162.88 L 341.33,159.3 L 340.82,156.77 L 339.84,155.24 L 338.3,155.24 L 337.96,155.24" fill="none" stroke="#3794ff" stroke-width="2"></path></svg>